<?xml version="1.0" encoding="utf-8"?>
<!-- Generator: Adobe Illustrator 24.0.0, SVG Export Plug-In . SVG Version: 6.00 Build 0)  -->
<svg version="1.1" id="Layer_1" xmlns="http://www.w3.org/2000/svg" xmlns:xlink="http://www.w3.org/1999/xlink" x="0px" y="0px"
	 viewBox="0 0 1004 838" style="enable-background:new 0 0 1004 838;" xml:space="preserve">
<style type="text/css">
	.st0{fill:url(#SVGID_1_);}
	.st1{fill:#CFD0D1;}
	.st2{fill:#F0EFEF;}
	.st3{fill:#E5E2E2;}
	.st4{fill:#E5BA92;}
	.st5{fill:#E0AD82;}
	.st6{fill:#FFFFFF;}
	.st7{fill:#E3282C;}
	.st8{fill:#231F20;}
	.st9{fill:#78502B;}
	.st10{fill:#372921;}
	.st11{fill:#7B4F20;}
	.st12{fill:#392518;}
	.st13{fill:url(#SVGID_2_);}
	.st14{fill:#824A1F;}
	.st15{fill:#FAB74E;}
</style>
<g>
	
		<radialGradient id="SVGID_1_" cx="266.5293" cy="2329.0547" r="156.4053" gradientTransform="matrix(1.2753 0 0 0.2169 171.5707 230.0456)" gradientUnits="userSpaceOnUse">
		<stop  offset="0" style="stop-color:#231F20;stop-opacity:0.35"/>
		<stop  offset="0.9289" style="stop-color:#231F20;stop-opacity:0"/>
	</radialGradient>
	<ellipse class="st0" cx="511.47" cy="735.32" rx="199.46" ry="33.93"/>
	<g>
		<path class="st1" d="M354.53,259.33c0,0-64.73,209.75-39.18,230c25.53,20.26,94.47-8.58,110.62-8.35
			c16.11,0.22,99.32-6.28,119.27-9.49c19.95-3.18,145.61,6.72,160.28-11.65c35.03-43.91,1.28-161.31,1.28-161.31l-81.06-122.35
			l-124.25-1.73l-82.85,16.61L354.53,259.33z"/>
		<path class="st2" d="M679.1,609.08c17.91-102.44,17.36-260.38-2.21-313.79c-0.11-0.26-1.09-0.41-1.31-0.25
			c-51.52,40.24-109.09,52.06-160.75,50.48l-0.01-0.04c-51.67,0.15-108.1-13.24-158.49-54.88c-0.19-0.19-0.63-0.05-0.74,0.2
			c-19.15,48.1-22.1,185.16-10.01,287.85c-1.95,23.87-4.2,55.65-4.07,70.95c0.23,26.27-6.81,24.99-4.85,52.48
			c0,0,58.14,3.16,82.28,7.64c24.14,4.46,118.83,9.32,157.58,4.25c38.74-5.06,54.33-0.42,69.96,0.67
			c15.63,1.1,33.07-0.71,41.68-4.45c0,0-0.99-34.54-4.28-53.17C681.71,644.64,679.78,623.83,679.1,609.08"/>
		<polygon class="st3" points="512.92,346.16 527.36,372.31 628.65,326.48 		"/>
		<polygon class="st1" points="512.92,346.16 512.6,346.34 527.2,372.79 631.4,325.64 512.35,345.89 512.6,346.34 512.92,346.16 
			512.98,346.52 625.91,327.31 527.52,371.84 513.24,345.99 512.92,346.16 512.98,346.52 		"/>
		<polygon class="st3" points="512.54,346.16 496.64,371.46 398.08,320 		"/>
		<polygon class="st1" points="512.54,346.16 512.22,345.96 496.51,370.97 400.76,320.99 512.45,346.51 512.54,346.16 
			512.22,345.96 512.54,346.16 512.62,345.8 395.42,319.02 496.77,371.94 513.12,345.91 512.62,345.8 		"/>
		<path class="st4" d="M680.97,303.63C643.84,196.16,567.5,112.05,567.5,112.05l-38.49-1.39l-59.04,0.03
			c0,0-74.18,77.33-115.18,179.26c-0.09,0.22,0.01,0.89,0.17,1.01c122.14,101.22,280.61,36.39,325.23,14.74
			C680.64,305.51,681.13,304.11,680.97,303.63z"/>
		<path class="st5" d="M394.84,242.97c0.2-15.03,21.2-57.97,26.04-71.37c-22.2,31.18-47.53,72.22-66.08,118.36
			c-0.09,0.22,0.03,0.89,0.18,1.01C407.97,334.89,467.8,347.5,522.22,346C459.48,335.17,393.92,308.63,394.84,242.97z"/>
		<path class="st6" d="M454.05,256.47l126.22,1.74c0,0-10.03,48.17-63.25,46.48c-53.22-1.67-60.89-27.02-63.48-43.71"/>
		<polyline class="st7" points="574.02,274.28 539.83,275.98 571.49,278.44 		"/>
		<polyline class="st7" points="455.81,272.64 489.94,275.29 457.5,276.86 		"/>
		<path class="st8" d="M553.05,186.29c-0.05,3.3-2.76,5.95-6.07,5.9c-3.3-0.05-5.95-2.77-5.91-6.07c0.05-3.32,2.79-5.95,6.08-5.91
			C550.46,180.26,553.1,182.97,553.05,186.29z"/>
		<path class="st6" d="M545.55,184.74c-0.54,0.92-1.59,1.31-2.36,0.85c-0.76-0.45-0.95-1.55-0.41-2.46
			c0.55-0.92,1.61-1.29,2.37-0.86C545.91,182.72,546.09,183.83,545.55,184.74z"/>
		<path class="st8" d="M493.52,185.46c-0.05,3.3-2.77,5.95-6.07,5.89c-3.31-0.04-5.94-2.76-5.91-6.06c0.05-3.31,2.76-5.95,6.07-5.9
			C490.91,179.43,493.56,182.15,493.52,185.46z"/>
		<path class="st6" d="M485.99,183.92c-0.54,0.92-1.57,1.3-2.36,0.84c-0.76-0.45-0.93-1.56-0.4-2.47c0.55-0.92,1.6-1.29,2.36-0.85
			C486.36,181.89,486.53,183.01,485.99,183.92z"/>
		<path class="st9" d="M513.82,185.74c0.35,3.18,0.58,6.35,0.78,9.53c0.12,1.59,0.17,3.17,0.25,4.76c0.09,1.59,0.15,3.17,0.19,4.76
			l0.03,1.29l-1.48,0.18c-4.87,0.61-10.13,2.41-12.82,6.03c-1.37,1.79-1.9,4.02-1.98,6.35l0.06,1.79c0.01,0.6,0.21,1.21,0.3,1.81
			c0.2,1.22,0.49,2.42,0.94,3.56c0.8,2.3,2.07,4.35,3.85,5.82c1.78,1.47,4.06,2.38,6.53,2.61c2.47,0.29,5.06-0.01,7.58-0.65
			c1.25-0.34,2.5-0.77,3.69-1.33c1.12-0.61,2.47-1.16,3.01-2.41c-0.06,0.69-0.54,1.28-0.98,1.8c-0.47,0.52-1.01,0.96-1.56,1.38
			c-1.11,0.84-2.34,1.51-3.61,2.08c-2.55,1.15-5.35,1.8-8.26,1.85c-2.9,0.02-5.95-0.81-8.48-2.58c-2.5-1.83-4.28-4.44-5.38-7.16
			c-0.56-1.37-0.94-2.77-1.2-4.2c-0.13-0.72-0.35-1.41-0.39-2.16l-0.11-2.24c0.02-3.01,0.92-6.21,2.89-8.7
			c1.93-2.52,4.66-4.1,7.38-5.1c2.76-1,5.53-1.48,8.47-1.52l-1.45,1.47c0.08-1.58,0.19-3.17,0.32-4.75
			c0.13-1.58,0.22-3.17,0.38-4.75C513.06,192.07,513.38,188.9,513.82,185.74z"/>
		<path class="st9" d="M549.47,168.01l13.12,10.93c0,0,0.38-9.12-6.45-13.41C551.26,162.46,549.47,168.01,549.47,168.01z"/>
		<path class="st9" d="M484.85,167.11l-13.43,10.56c0,0-0.13-9.12,6.82-13.23C483.2,161.52,484.85,167.11,484.85,167.11z"/>
		<path class="st9" d="M422.16,165.4c-0.91,0.22-1.49,0.2-2.05,0.17c-0.56-0.04-0.96-0.14-1.91-0.23c0.07-0.47,0.37-0.86,0.76-1.08
			c0.39-0.24,0.84-0.31,1.27-0.3C421.07,164.06,421.85,164.49,422.16,165.4z"/>
		<path class="st4" d="M602.68,160.77c0,0,13.47-22.57,26.05-4.68c12.58,17.9-12.79,19.61-14.96,17.1"/>
		<path class="st9" d="M611.45,164.32c1.63-1.26,3.12-2.37,4.41-3.69c0.67-0.63,1.21-1.36,1.75-2.1c0.56-0.75,0.94-1.6,1.46-2.52
			c0.15,1.01,0.08,2.12-0.34,3.1c-0.38,0.99-0.98,1.91-1.73,2.66c-0.76,0.74-1.62,1.37-2.56,1.8
			C613.51,164.01,612.5,164.32,611.45,164.32z"/>
		<path class="st9" d="M613.58,167.42c0.34-0.9,1.14-1.32,1.99-1.38c0.43,0,0.89,0.09,1.27,0.34c0.38,0.24,0.67,0.64,0.73,1.11
			c-0.96,0.06-1.37,0.15-1.93,0.17C615.07,167.66,614.49,167.66,613.58,167.42z"/>
		<path class="st10" d="M589.99,237.34c-9.58-4.18-51.35,0.63-75.62,3.88c-24.16-3.92-65.79-9.9-75.48-5.98
			c-13.86,5.59-26.78,70.01,9.45,96.27c0,0,45.13,14.52,64.63,10.73c19.38,4.33,64.91-8.93,64.91-8.93
			C614.81,308.07,603.68,243.31,589.99,237.34z M571.91,317.94c-5.49,8.16-33.84,9.55-49.33,9.64l-0.95-2.77l3.63-11.24
			c-2.8,0.62-7.42,0.97-12.63,0.89c-5.22-0.06-9.82-0.55-12.6-1.23l3.31,11.33l-1.03,2.71c-15.74-0.6-42.48-2.91-47.58-10.96
			c-7.78-12.28-15.64-54.19-5.29-68.07c0,0,32.11,3.09,54.41,4.5l0.14,0.1c1.1,0.41,4.91,0.54,10.23,0.47
			c5.31,0.2,9.12,0.19,10.22-0.19l0.16-0.09c22.33-0.8,54.48-3,54.48-3C589.04,264.2,580.03,305.86,571.91,317.94z"/>
		<path class="st5" d="M494.64,305.64c0,0,23.65,6.64,42.6-0.39C537.24,305.25,514.75,317.87,494.64,305.64z"/>
		<polyline class="st1" points="510.21,345.09 508.64,458.75 512.72,458.8 514.29,345.14 		"/>
		<path class="st1" d="M531.72,394.02c-0.04,2.8-2.34,5.06-5.17,5.01c-2.79-0.03-5.05-2.35-5-5.15c0.04-2.8,2.35-5.07,5.15-5.02
			C529.53,388.89,531.76,391.22,531.72,394.02z"/>
		<path class="st2" d="M528.95,392.45c-0.02,0.46-0.37,0.81-0.82,0.8c-0.44,0-0.79-0.36-0.79-0.82c0.01-0.43,0.37-0.79,0.82-0.79
			C528.61,391.65,528.95,392.01,528.95,392.45z"/>
		<path class="st2" d="M526,392.41c0,0.45-0.38,0.79-0.83,0.8c-0.45-0.02-0.81-0.36-0.81-0.82c0.01-0.44,0.38-0.8,0.83-0.8
			C525.64,391.6,526,391.98,526,392.41z"/>
		<path class="st2" d="M528.91,395.5c0,0.43-0.36,0.8-0.81,0.8c-0.45-0.01-0.81-0.38-0.8-0.83c0.01-0.44,0.37-0.82,0.82-0.8
			C528.56,394.67,528.91,395.04,528.91,395.5z"/>
		<path class="st2" d="M525.95,395.46c-0.01,0.43-0.39,0.79-0.83,0.79c-0.45-0.01-0.81-0.38-0.8-0.82c0.01-0.46,0.38-0.81,0.83-0.8
			C525.59,394.63,525.96,395,525.95,395.46z"/>
		<path class="st1" d="M531.34,420.85c-0.03,2.81-2.33,5.07-5.16,5.03c-2.8-0.04-5.05-2.37-5.01-5.17c0.04-2.79,2.36-5.05,5.15-5.01
			C529.15,415.73,531.4,418.05,531.34,420.85z"/>
		<path class="st2" d="M528.57,419.3c-0.01,0.45-0.36,0.81-0.81,0.8c-0.45-0.01-0.8-0.37-0.79-0.82c0-0.45,0.37-0.8,0.82-0.79
			C528.23,418.47,528.58,418.84,528.57,419.3z"/>
		<path class="st2" d="M525.62,419.26c-0.01,0.45-0.38,0.8-0.83,0.8c-0.45-0.02-0.81-0.37-0.8-0.82c0-0.46,0.38-0.81,0.82-0.81
			C525.27,418.45,525.62,418.8,525.62,419.26z"/>
		<path class="st2" d="M528.53,422.34c-0.01,0.44-0.36,0.82-0.81,0.81c-0.45-0.01-0.8-0.4-0.8-0.84c0.01-0.47,0.37-0.81,0.82-0.81
			C528.19,421.51,528.53,421.88,528.53,422.34z"/>
		<path class="st2" d="M525.58,422.3c-0.01,0.44-0.38,0.82-0.82,0.81c-0.45,0-0.81-0.39-0.8-0.83c0.01-0.47,0.38-0.82,0.83-0.81
			C525.22,421.47,525.59,421.84,525.58,422.3z"/>
		<path class="st8" d="M465.34,122.96l-27.56,30.54c0,0,49.38,2.01,65.2-17.25L465.34,122.96z"/>
		<path class="st8" d="M583.26,124.6l-21.63,6.63c0,0,22.73,14.9,35.64,10.26L583.26,124.6z"/>
		<path class="st3" d="M452.97,598.28c0,0,33.52-0.13,44.26-5.55c0,0-10.76-1.19-12.01-4.22c-1.22-3.03,24.61-0.93,27.31-12.25
			c2.72-11.34-34.77-7.69-67.39-13.64c-83.3-15.17-79.82-154.1-76.88-181.89l-26.54-13.96c-5.38,62.18-3.98,144.46,3.95,211.87
			c-1.94,23.9-4.23,55.68-4.11,70.97c0.23,26.27-6.84,24.99-4.86,52.47c0,0,18.34,1.01,38.72,2.67
			C375.73,692.84,380.54,591.04,452.97,598.28z"/>
		<path class="st3" d="M444.22,102.1c0,0,22.18-33.54,68.7-33.35c46.55,0.2,75.41,15.01,86.83,33.37L444.22,102.1z"/>
		<path class="st11" d="M523.15,90.19c49.07-0.06,88.27,24.67,99.36,42.77c0.88,1.41,1.51,2.73,1.99,3.98
			c1.78-3.28,1.89-7.78-1.84-13.87c-11.1-18.09-50.3-42.81-99.36-42.77c-49.03-1.41-88.9,22.21-100.5,39.99
			c-3.89,5.98-3.92,10.48-2.24,13.82c0.52-1.24,1.21-2.54,2.1-3.93C434.26,112.4,474.13,88.77,523.15,90.19z"/>
		<path class="st12" d="M433.84,142.78c15.16-11.87,49.82-28.96,95.22-28.71c45.39,0.27,81.94,31.17,81.94,31.17
			s10.02-1.81,13.5-8.31c-0.47-1.25-1.11-2.57-1.99-3.98c-11.09-18.1-50.29-42.82-99.36-42.77c-49.02-1.42-88.89,22.21-100.5,40
			c-0.89,1.38-1.58,2.68-2.1,3.93C423.88,140.71,433.84,142.78,433.84,142.78z"/>
		<path class="st3" d="M522.14,95.06c-54.94-0.76-76.03,22.78-88.37,35.31c-38.53,39.14-79.24,128.96-79.24,128.96
			c17.33-8.27,27.47-3.34,27.47-3.34s49.75-49.98,60.16-86.2c2.64-9.16,9.02-38.96,33.35-38.03c25.21,0.97,27.11,24.9,27.09,26
			c-0.02,1.1,30-19.93,33.75-31.02c0,0,12.8,0.54,19.57,14.92c0,0,24.58-4.79,25.06-11.74c0,0,14.42,13.1,23.44,40.42
			c8.3,25.17,42.12,59.63,64.33,111.36c0,0,17.13-7.33,38.07,16.16c0,0-27.09-70.81-92.86-171.66
			C613.95,126.21,593.15,96.05,522.14,95.06z"/>
		
			<radialGradient id="SVGID_2_" cx="528.1809" cy="518.8021" r="4.880886e-03" gradientTransform="matrix(2.555797e-03 3.552913e-05 3.552913e-05 -2.555797e-03 -604.4328 187.8456)" gradientUnits="userSpaceOnUse">
			<stop  offset="0" style="stop-color:#C7E2F2"/>
			<stop  offset="0.1097" style="stop-color:#D0E6F4"/>
			<stop  offset="0.4342" style="stop-color:#E8F2F9"/>
			<stop  offset="0.7385" style="stop-color:#F7FBFD"/>
			<stop  offset="1" style="stop-color:#FFFFFF"/>
		</radialGradient>
		<polyline class="st13" points="528.19,518.8 528.17,518.81 528.19,518.8 		"/>
		<path class="st14" d="M578.51,386.75l0.34-0.49c0.89-1.66,0.32-3.01-1.3-3.07l-3.32,6.04C575.72,389.2,577.5,388.12,578.51,386.75
			z"/>
		<path class="st14" d="M580.07,377.07l-0.72,2.06c3.4,0.12,4.67,3.33,2.8,6.78l-0.02,0.19c-2.49,4.5-7.16,8.49-11.98,10.46
			l-0.83,1.55l10.42-0.59l10.78-20.3L580.07,377.07z"/>
		<path class="st15" d="M572.79,386.67c-0.7,1.28-0.22,2.35,1.08,2.37l0.02-0.01l2.56-4.66l-0.02,0
			C575.12,384.36,573.51,385.38,572.79,386.67z"/>
		<path class="st15" d="M570.06,397.6l0.64-2c-0.55,0.24-1.12-0.01-1.66,0.15l-0.96-2.32c1.42-0.16,2.9-0.34,4.33-1.14l0.09,0.17
			l-0.03,0.01c-2.68-0.04-3.67-2.52-2.2-5.2c1.46-2.65,4.82-5.09,7.5-5.05l0.03,0l0.55-1.15l-8.03,0.62l-8.27,15.82L570.06,397.6z"
			/>
		<path class="st14" d="M592.11,390.6l0.26-0.05l0.21-0.16l0.06-0.15l0.03-0.36l0.03-1.5l1.2,0.02l-0.03,1.53l-0.02,0.3l-0.03,0.29
			c-0.04,0.18-0.11,0.35-0.25,0.48l-0.24,0.19l-0.25,0.11l-0.26,0.04l-0.23,0l-2.72-0.03l-0.22-0.01l-0.25-0.05l-0.25-0.12
			l-0.24-0.2c-0.12-0.12-0.2-0.29-0.23-0.48l-0.03-0.29l0-0.31l0.01-0.79l1.19,0.03l0,0.76l0.02,0.35l0.05,0.15l0.22,0.17l0.26,0.05
			L592.11,390.6z M590.03,388.03l0.01-0.65l1.17,0.02l-0.02,0.66L590.03,388.03z M591.46,388.05l0-0.66l1.15,0.01l-0.01,0.67
			L591.46,388.05z"/>
		<polygon class="st14" points="594.35,387.44 595.5,387.46 595.44,391.38 594.27,391.36 		"/>
		<path class="st14" d="M595.88,391.62l0.23,0.01l0.18-0.01l0.24-0.12l0.19-0.2l0.06-0.37l0.03-2.51l1.18,0.02l-0.04,2.73
			l-0.03,0.22l-0.06,0.27l-0.13,0.25l-0.25,0.23c-0.16,0.09-0.35,0.13-0.6,0.17c-0.14,0.02-0.28,0.01-0.46,0.02
			c-0.14,0-0.34-0.01-0.56-0.01L595.88,391.62z"/>
		<polygon class="st14" points="598.5,387.5 599.66,387.51 599.63,389.91 599.64,390.19 599.77,390.48 599.9,390.59 600.04,390.66 
			600.19,390.7 600.36,390.7 600.42,390.71 600.41,391.45 599.97,391.44 599.73,391.44 599.42,391.4 599.1,391.31 598.84,391.16 
			598.61,390.93 598.5,390.68 598.46,390.42 598.46,390.18 		"/>
		<path class="st14" d="M602.37,389.53L602.37,389.53l0,0.42l0,0.12l0.03,0.15l0.04,0.15l0.08,0.14l0.13,0.12l0.15,0.05l0.14,0.05
			l0.18,0.01h0.08l-0.01,0.75l-0.47-0.01l-0.23-0.02l-0.23-0.02l-0.25-0.04l-0.27-0.1l-0.23,0.09l-0.27,0.03l-0.23,0.02h-0.21
			l-0.46-0.02l0.01-0.74l0.08,0.01l0.16-0.01l0.17-0.04l0.14-0.08l0.11-0.1l0.09-0.14l0.05-0.15l0.02-0.15l0.02-0.12l0.02-1.44
			l1.16,0.02L602.37,389.53z M600.46,392.44l0.01-0.66l1.17,0.02l-0.01,0.65L600.46,392.44z M601.87,392.47l0.01-0.66l1.17,0.02
			l-0.01,0.66L601.87,392.47z"/>
		<polygon class="st14" points="603.13,390.74 603.62,390.75 603.66,388.53 604.81,388.55 604.78,390.78 605.46,390.78 
			605.48,388.55 606.63,388.57 606.59,390.8 607.09,390.8 607.16,390.78 607.22,390.74 607.24,390.68 607.23,390.6 607.26,388.58 
			608.42,388.59 608.39,390.83 608.8,390.83 608.78,391.58 603.12,391.5 		"/>
		<polygon class="st14" points="610.67,390.35 610.66,390.58 610.6,390.86 610.49,391.09 610.29,391.32 609.99,391.47 
			609.68,391.55 609.38,391.58 609.12,391.58 608.71,391.58 608.73,390.82 608.77,390.82 608.93,390.82 609.1,390.78 609.24,390.73 
			609.35,390.62 609.43,390.47 609.48,390.33 609.52,390.19 609.53,390.04 609.56,387.65 610.71,387.66 		"/>
		<polygon class="st14" points="611.29,387.67 612.46,387.69 612.4,391.63 611.23,391.62 		"/>
		<path class="st14" d="M614.09,391.9l0.24,0l0.15-0.03l0.25-0.11l0.19-0.22l0.07-0.33l0.04-2.53l1.16,0.02l-0.03,2.23l0.44,0.01
			l-0.01,0.75l-0.45,0l-0.13,0.38l-0.32,0.35c-0.16,0.1-0.36,0.15-0.59,0.17c-0.13,0.02-0.28,0.01-0.45,0.01
			c-0.16,0.01-0.36,0.01-0.56,0L614.09,391.9z"/>
		<path class="st14" d="M618.55,389.77v-0.02l-0.01,0.4l0.01,0.16l0.01,0.13l0.05,0.15l0.09,0.15l0.11,0.1l0.14,0.07l0.16,0.04
			l0.16,0h0.12l-0.01,0.76l-0.48,0h-0.2l-0.24-0.03l-0.25-0.05l-0.26-0.08l-0.26,0.07l-0.24,0.04l-0.26,0.02l-0.19-0.01l-0.45-0.01
			l0.01-0.75l0.07,0l0.18-0.01l0.16-0.03l0.14-0.06l0.12-0.11l0.09-0.14l0.05-0.14l0.02-0.13l0.01-0.15l0.02-1.44l1.17,0.03
			L618.55,389.77z M616.65,392.67l0.01-0.66l1.14,0.01l-0.01,0.66L616.65,392.67z M618.02,392.69l0.02-0.66l1.19,0.02l-0.01,0.66
			L618.02,392.69z"/>
		<path class="st14" d="M619.31,390.97l2.27,0.04l0.01-0.74v-0.22l-0.04-0.17l-0.18-0.24c-0.08-0.09-0.23-0.12-0.44-0.11l-1.15-0.02
			l0.01-0.76l1.71,0.03c0.18,0,0.38,0.03,0.52,0.07l0.43,0.26l0.18,0.26l0.11,0.32l0.03,0.32l0.01,0.33l-0.01,0.7l0.39,0.01
			l-0.01,0.74l-3.86-0.06L619.31,390.97z M620.41,392.73l0.01-0.67l1.14,0.03l-0.01,0.65L620.41,392.73z"/>
		<path class="st14" d="M623.94,387.85l1.18,0.02l-0.03,2.41l0.01,0.28l0.13,0.29l0.11,0.11l0.15,0.06l0.15,0.04l0.16,0.01
			l0.18,0.01l-0.01,0.75l-0.55-0.02h-0.26l-0.3-0.06l-0.31-0.06l-0.3-0.17l-0.19-0.21l-0.11-0.27l-0.05-0.26l-0.01-0.23
			L623.94,387.85z M624.13,387.27l0.5,0l0.03-0.03l-0.02-0.02l-0.03-0.01l-0.35-0.11l-0.1-0.07l-0.04-0.1l0-0.09l0-0.1l0.05-0.08
			l0.06-0.03l0.11-0.02l0.57,0.01l0,0.22l-0.45-0.01l-0.05,0.02l-0.01,0.01l0.01,0.03l0.07,0.02l0.3,0.09l0.05,0.03l0.06,0.04
			l0.05,0.1l0.03,0.09l-0.02,0.1l-0.03,0.09l-0.1,0.06l-0.1,0l-0.61-0.01V387.27z"/>
		<path class="st14" d="M627.93,389.9v-0.01l-0.01,0.42l0.01,0.29l0.14,0.28l0.12,0.11l0.14,0.06l0.15,0.04l0.17,0.01l0.11,0
			l-0.01,0.75l-0.47-0.01l-0.21-0.01l-0.24-0.01c-0.19-0.03-0.36-0.08-0.51-0.14c-0.17,0.05-0.33,0.11-0.51,0.12l-0.26,0.02h-0.2
			h-0.44l0.01-0.74l0.06,0l0.18-0.01l0.15-0.03l0.14-0.06l0.12-0.12l0.13-0.27l0.05-0.29l0.02-1.44l1.16,0.01L627.93,389.9z
			 M626.08,388.55l0.01-0.67l1.17,0.02l0,0.67L626.08,388.55z M627.49,388.57l0-0.68l1.16,0.02l-0.01,0.68L627.49,388.57z"/>
		<polygon class="st14" points="630.64,390.63 630.63,390.86 630.56,391.13 630.45,391.38 630.25,391.6 629.96,391.75 
			629.64,391.82 629.35,391.86 629.08,391.86 628.67,391.86 628.68,391.11 628.73,391.11 628.89,391.11 629.05,391.07 629.19,391 
			629.31,390.9 629.4,390.75 629.45,390.61 629.47,390.47 629.48,390.33 629.51,387.93 630.68,387.95 		"/>
		<path class="st14" d="M633.19,391.1c0.03,0.21,0.08,0.4,0.16,0.53l0.3,0.35l0.4,0.19l0.41,0.05l0.77,0.01l0.09,0l0.13-0.01
			l0.1-0.02l0.11-0.05l0.12-0.21l-0.99-0.01l-0.24-0.01l-0.26-0.07l-0.23-0.1l-0.19-0.22c-0.1-0.12-0.16-0.29-0.2-0.46
			c-0.03-0.18-0.04-0.4-0.04-0.66l0.03-0.39l0.07-0.29l0.1-0.23l0.14-0.19l0.19-0.16l0.22-0.13l0.27-0.05l0.34-0.02l1.29,0.03
			l0.14,0l0.14,0.02l0.15,0.04l0.11,0.09l0.09,0.11l0.07,0.12l0.03,0.1l0,0.11l-0.04,2.06l-0.01,0.28l-0.04,0.26l-0.08,0.21
			l-0.14,0.2c-0.12,0.14-0.27,0.24-0.47,0.31c-0.18,0.04-0.41,0.07-0.65,0.07l-1.14-0.01h-0.38l-0.32-0.04l-0.31-0.04l-0.31-0.1
			l-0.3-0.18l-0.28-0.27l-0.21-0.33l-0.06-0.43L633.19,391.1z M634.11,388.66l0.01-0.65l1.16,0.02l-0.01,0.64L634.11,388.66z
			 M635.82,390.01l-0.02-0.1l-0.08-0.1l-0.08-0.02l-0.1,0l-0.13-0.01h-0.13l-0.11,0.01l-0.12,0.06l-0.12,0.08l-0.04,0.06l-0.02,0.1
			l-0.06,0.16l-0.01,0.24l0.04,0.31l0.09,0.19l0.11,0.1l0.15,0.03l0.14,0.03h0.14l0.33,0L635.82,390.01z M635.53,388.68l0.01-0.65
			l1.16,0.02l-0.01,0.66L635.53,388.68z"/>
		<polygon class="st14" points="637.5,388.06 638.65,388.07 638.61,390.46 638.64,390.74 638.78,391.03 638.89,391.14 
			639.05,391.22 639.19,391.25 639.36,391.26 639.43,391.26 639.42,392 638.97,392 638.71,392 638.41,391.96 638.1,391.87 
			637.81,391.71 637.62,391.48 637.51,391.23 637.47,390.96 637.46,390.73 		"/>
		<path class="st14" d="M639.33,391.99l0.01-0.74l0.52,0.01l-0.07-0.33v-0.32l0-0.31l0.05-0.34l0.09-0.31l0.16-0.26l0.17-0.16
			l0.24-0.13l0.21-0.05l0.2-0.01l1.02,0.02c0.18,0,0.36,0.01,0.51,0.07l0.42,0.26l0.19,0.26l0.1,0.3l0.03,0.33l0.03,0.31l-0.03,0.34
			l-0.04,0.29l-0.08,0.25l-0.15,0.22l-0.23,0.18l-0.26,0.09l-0.26,0.07h-0.22L639.33,391.99z M640.9,388.75l0.02-0.65l1.16,0.02
			l-0.01,0.65L640.9,388.75z M641.59,391.27l0.19-0.06l0.15-0.13l0.01-0.05l0.05-0.09l0.02-0.15l0.02-0.22l-0.02-0.22l-0.04-0.18
			l-0.04-0.11l-0.08-0.08l-0.12-0.1l-0.15-0.04l-0.31,0.03l-0.22,0.18l-0.07,0.24v0.31l0,0.22l0.07,0.22l0.08,0.12l0.09,0.06
			l0.13,0.04l0.1,0.01L641.59,391.27z"/>
		<path class="st14" d="M643.66,392.35l1.42,0.02l0.09,0.01h0.11l0.12-0.03l0.09-0.04l0.14-0.21l-0.99-0.02l-0.27,0l-0.23-0.06
			l-0.23-0.12l-0.22-0.21c-0.08-0.12-0.13-0.3-0.16-0.47c-0.05-0.18-0.07-0.4-0.08-0.66l0.04-0.37l0.05-0.3l0.12-0.24l0.15-0.2
			l0.19-0.15l0.23-0.11l0.25-0.06l0.32-0.02l1.3,0.02h0.14l0.14,0.03l0.15,0.04l0.12,0.07l0.1,0.12l0.05,0.12l0.03,0.13v0.08
			l-0.03,1.65h0.43l-0.01,0.75l-0.45-0.01l-0.08,0.34l-0.17,0.28c-0.11,0.15-0.27,0.24-0.46,0.31c-0.19,0.05-0.4,0.07-0.64,0.07
			l-1.77-0.03L643.66,392.35z M645.67,390.16l-0.02-0.1l-0.07-0.1l-0.09-0.03l-0.08,0l-0.15,0l-0.11-0.01l-0.12,0.01l-0.12,0.04
			l-0.11,0.09l-0.04,0.06l-0.04,0.1l-0.02,0.16l-0.04,0.24l0.03,0.34l0.1,0.21l0.13,0.1l0.13,0.04l0.15,0.02l0.13,0.02l0.33,0
			L645.67,390.16z"/>
		<polygon class="st14" points="649.11,390.9 649.09,391.13 649.05,391.4 648.93,391.64 648.74,391.86 648.44,392.01 648.13,392.09 
			647.82,392.12 647.57,392.12 647.16,392.11 647.17,391.36 647.21,391.37 647.38,391.37 647.53,391.32 647.68,391.26 647.8,391.16 
			647.88,391.03 647.93,390.87 647.95,390.73 647.96,390.59 647.99,388.2 649.15,388.22 		"/>
		<polygon class="st14" points="649.73,388.23 650.89,388.25 650.84,392.17 649.69,392.15 		"/>
		<path class="st15" d="M588.67,397.91l0.05-3.04c0-0.23,0.09-0.44,0.28-0.61c0.2-0.17,0.44-0.24,0.72-0.24l0.97,0.01
			c0.27,0.01,0.5,0.08,0.7,0.27c0.18,0.17,0.29,0.38,0.28,0.61l-0.04,3.05l-1-0.02l0.02-1.72l-0.97-0.02l-0.03,1.72L588.67,397.91z
			 M589.68,395.76l0.98,0.02l0.02-0.88l-0.13-0.3l-0.35-0.14l-0.34,0.13l-0.15,0.29L589.68,395.76z"/>
		<polygon class="st15" points="592.58,397.97 592.63,394.07 593.63,394.09 593.58,397.55 595.04,397.57 595.04,398 		"/>
		<path class="st15" d="M596.09,394.11l0.97,0.01l-0.05,3.47l0.5,0l0.36-0.12l0.14-0.3l0.06-3.04l0.96,0.01l-0.04,3.47h0.5
			l0.34-0.12l0.15-0.3l0.05-3.03l0.98,0.01l-0.03,2.43c-0.01,0.4-0.18,0.73-0.51,1.02c-0.34,0.29-0.72,0.43-1.2,0.42l-1.26-0.02
			l0.02-0.13c-0.2,0.07-0.45,0.12-0.72,0.12l-1.26-0.01L596.09,394.11z"/>
		<polygon class="st15" points="601.92,398.1 601.97,394.2 604.42,394.23 604.42,394.66 602.95,394.64 602.92,395.95 603.9,395.96 
			603.9,396.4 602.92,396.39 602.9,397.68 604.38,397.7 604.37,398.13 		"/>
		<polygon class="st15" points="605.35,398.14 605.41,394.24 607.87,394.27 607.86,394.72 606.38,394.69 606.36,396 607.35,396.01 
			607.34,396.45 606.35,396.43 606.33,398.15 		"/>
		<path class="st15" d="M608.79,398.2l0.06-3.04c0-0.23,0.1-0.44,0.29-0.62c0.2-0.16,0.43-0.24,0.7-0.23l0.98,0.02
			c0.28,0,0.51,0.09,0.69,0.27c0.19,0.17,0.28,0.38,0.28,0.61l-0.05,3.03l-0.97-0.01l0.02-1.73l-0.98-0.01l-0.04,1.72L608.79,398.2z
			 M609.8,396.04l0.98,0.02l0.01-0.88l-0.14-0.3l-0.33-0.15l-0.36,0.14l-0.13,0.29L609.8,396.04z"/>
		<path class="st15" d="M614.43,398.28l-0.73-0.02c-0.28,0-0.5-0.1-0.69-0.26c-0.18-0.17-0.28-0.38-0.27-0.62l0.03-2.18
			c0.01-0.23,0.1-0.43,0.3-0.61c0.21-0.16,0.41-0.24,0.69-0.25l0.99,0.02c0.26,0,0.49,0.09,0.68,0.27c0.17,0.17,0.27,0.38,0.27,0.62
			l-0.02,2.16c-0.01,0.51-0.34,0.81-1,0.86l0.99,0.01l-0.01,0.43l-0.75-0.01C614.64,398.71,614.47,398.57,614.43,398.28z
			 M613.75,395.23l-0.03,2.18l0.12,0.31l0.35,0.11l0.36-0.1l0.14-0.32l0.04-2.17l-0.14-0.31l-0.37-0.14l-0.34,0.13L613.75,395.23z"
			/>
		<path class="st15" d="M618.09,398.33l0.06-3.91l1.95,0.03c0.28,0.02,0.49,0.09,0.7,0.28c0.19,0.16,0.27,0.38,0.27,0.62l0,0.22
			c0,0.2-0.09,0.37-0.22,0.56c-0.18,0.16-0.43,0.27-0.77,0.26l0.49,0.02l0.33,0.13l0.15,0.3l-0.02,1.54l-0.97-0.02l0.02-1.3
			l-0.14-0.31l-0.36-0.13l-0.47-0.01l-0.03,1.73L618.09,398.33z M619.1,396.18l0.47,0l0.37-0.12l0.14-0.31l0-0.44l-0.14-0.31
			l-0.36-0.13l-0.47,0L619.1,396.18z"/>
		<polygon class="st15" points="622.01,398.38 622.05,394.48 624.51,394.52 624.51,394.94 623.03,394.92 623.01,396.24 
			624.01,396.25 624,396.67 623.01,396.66 622.99,397.96 624.47,398 624.47,398.42 		"/>
		<polygon class="st15" points="625.45,398.43 625.51,394.53 625.72,394.53 628.43,396.75 628.46,394.56 628.95,394.58 
			628.89,398.49 628.65,398.48 625.97,396.28 625.95,398.45 		"/>
		<polygon class="st15" points="630.36,398.51 630.4,395.02 629.41,395 629.42,394.58 632.36,394.63 632.36,395.06 631.38,395.05 
			631.33,398.51 		"/>
		<path class="st15" d="M634.23,398.56l0.05-3.04c0-0.25,0.12-0.45,0.31-0.61c0.18-0.17,0.42-0.25,0.7-0.25l0.99,0.02
			c0.25,0.01,0.48,0.09,0.67,0.28c0.18,0.16,0.27,0.37,0.27,0.61l-0.05,3.03l-0.95-0.01l0.03-1.73l-1-0.01l-0.02,1.73L634.23,398.56
			z M635.26,396.42l1,0.01l0.01-0.87l-0.16-0.31l-0.35-0.15l-0.35,0.12l-0.14,0.32L635.26,396.42z"/>
		<path class="st15" d="M642.56,397.82c-0.04,0.58-0.38,0.86-1,0.85l-0.97-0.02c-0.26,0-0.5-0.09-0.69-0.27
			c-0.2-0.17-0.29-0.37-0.28-0.6l0.03-2.18c0.01-0.24,0.1-0.45,0.3-0.6c0.19-0.18,0.42-0.27,0.69-0.25l0.97,0.01
			c0.63,0,0.95,0.31,0.98,0.89l-0.49,0c-0.04-0.3-0.2-0.45-0.5-0.45l-0.47,0l-0.36,0.14l-0.15,0.29l-0.03,2.18l0.13,0.29l0.36,0.14
			l0.48,0.01c0.29-0.01,0.45-0.15,0.5-0.42L642.56,397.82z"/>
		<path class="st15" d="M643.54,398.7l0.04-3.04c0-0.24,0.09-0.45,0.29-0.61c0.19-0.16,0.43-0.25,0.71-0.25l0.98,0.02
			c0.26,0,0.5,0.11,0.69,0.27c0.19,0.17,0.27,0.38,0.27,0.62l-0.04,3.04l-0.98-0.01l0.02-1.74l-0.97-0.02l-0.04,1.74L643.54,398.7z
			 M644.55,396.54l0.98,0.01l0.02-0.87l-0.13-0.3l-0.35-0.14l-0.36,0.13l-0.14,0.3L644.55,396.54z"/>
		<path class="st15" d="M647.45,398.75l0.05-3.91l1.96,0.02c0.27,0,0.51,0.12,0.7,0.27c0.18,0.17,0.27,0.39,0.28,0.63l-0.01,0.24
			c0,0.19-0.09,0.36-0.23,0.55c-0.16,0.18-0.4,0.26-0.76,0.26l0.5,0.01l0.34,0.13l0.14,0.31l-0.03,1.55l-0.99-0.02l0.02-1.29
			l-0.14-0.31l-0.35-0.13l-0.48-0.01l-0.01,1.73L647.45,398.75z M648.47,396.6l0.48,0.01l0.35-0.13l0.15-0.3l0.01-0.43l-0.14-0.31
			l-0.35-0.15l-0.47,0L648.47,396.6z"/>
		<path class="st14" d="M651.47,399.52c0.02-0.69,0.58-1.23,1.26-1.23c0.69,0.02,1.25,0.58,1.25,1.27
			c-0.01,0.69-0.59,1.24-1.28,1.24C652.01,400.78,651.47,400.21,651.47,399.52z M651.67,399.52c0.01,0.57,0.46,1.05,1.03,1.05
			c0.57,0,1.05-0.44,1.05-1.02c0.01-0.57-0.44-1.04-1.01-1.05C652.15,398.49,651.69,398.95,651.67,399.52z"/>
		<path class="st14" d="M652.17,400.24l0.02-1.49h0.67l0.22,0.03l0.16,0.08l0.07,0.15l0.04,0.19l-0.02,0.08l-0.03,0.08l-0.05,0.08
			l-0.09,0.06l0.09,0.06l0.03,0.08l0.01,0.1l0.01,0.13v0.11l0.02,0.09l0.01,0.05l0.05,0.05l0,0.08h-0.26l-0.07-0.26l-0.01-0.25h0.02
			l-0.2-0.11h-0.45l0,0.61L652.17,400.24z M652.42,398.97l0,0.43l0.45,0.01l0.17-0.05l0.06-0.17l0.01-0.01l-0.23-0.21L652.42,398.97
			z"/>
		<path class="st2" d="M298.81,414.43c0,0,76.32-20.75,84.75-26.12l-7.87-34.76l-35.98-0.5L298.81,414.43z"/>
		<path class="st5" d="M263.12,358.63c0,0,2.73-15.78-2.99-29.2c-5.72-13.43-15.57-25.5-15.57-25.5s3.55-10.46,23.11-10.05
			c19.54,0.41,26.23,28.73,26.95,39.99c0.71,11.25,5.43,16.34,5.43,16.34L263.12,358.63z"/>
		<path class="st4" d="M266.67,357.81c0,0,2.35-13.37-3.22-26.83c-5.57-13.45-14.66-25.72-14.66-25.72s2.62-10.23,19.62-9.2
			c17,1.05,24.07,29.28,25.19,40.44c1.13,11.16,4.73,14.11,4.73,14.11L266.67,357.81z"/>
		<path class="st5" d="M351.99,415.92c2.31-2.37,3.54-8.27,0.31-13.76c-2.79-4.74-4.74-5.72-8.37-6.74
			c1.78-1.06,5.82-6.02,1.44-15.61c-2.84-6.17-6.61-9.79-10.05-10.83l0.27-0.1c0,0,5.77-3.94,0.82-14.73
			c-3.78-8.29-16.55-8.42-16.55-8.42s-37.54,4.29-49.28,6.67c-11.72,2.39-16.78,10.87-17.67,16.48c-0.88,5.62,1.18,14.45,8.56,16.44
			c0.85,0.23,1.85,0.42,3.04,0.54c-2.19,3.45-3.1,5.47-3.47,7.85c-0.86,5.61,2.07,12.1,8.13,16.23c2.58,1.75,7.17,2.24,9.79,2.38
			c-1.64,2.38-3.52,3.5-3.48,7.27c-1.22,18.03,17.9,20.29,17.79,20.68c0.92,2.65,0.65,5.51,2.05,8.06c1.17,2.09,2.75,4.07,4.8,5.61
			c3.07,2.31,6.81,3.66,10.77,3.93c8.58-2.27,22.57-8.44,43.26-22.31C354.15,435.56,363.84,423.36,351.99,415.92z"/>
		<path class="st4" d="M352.86,418.92c-1.31-1.59-2.75-1.01-4.46-1.79c2.16-2.22,5.8-6.65,2.34-13.68
			c-2.56-5.18-5.56-7.15-8.97-8.09c1.67-1,5.4-6.39,1.29-15.37c-2.65-5.81-6.55-9.81-9.79-10.79c0,0,7.08-3.77,2.45-13.9
			c-3.55-7.76-15.53-7.89-15.53-7.89s-35.19,4-46.21,6.25c-10.99,2.24-15.73,10.19-16.56,15.46c-0.84,5.25,1.1,13.54,8.02,15.42
			c0.79,0.2,1.73,0.39,2.85,0.51c-2.03,3.25-2.9,5.13-3.24,7.36c-0.84,5.26,1.91,11.33,7.61,15.23c2.43,1.65,6.73,2.1,9.17,2.23
			c-1.54,2.24-3.29,3.28-3.25,6.82c-1.15,16.87,16.77,19.02,16.68,19.37c0.87,2.49,0.61,5.15,1.94,7.57
			c1.09,1.96,2.57,3.8,4.49,5.25c2.88,2.17,7.37,4.18,11.08,4.44c8.06-2.14,21.17-7.94,40.56-20.95
			C353.33,432.35,358.8,426.08,352.86,418.92z"/>
		<path class="st5" d="M285.66,379.44c0,0,36.88-7.97,42.1-9.66C327.76,369.78,314.64,366.57,285.66,379.44z"/>
		<path class="st5" d="M287.78,408.52c0,0,46.14-11.15,51.46-12.62C339.24,395.9,319.07,395.14,287.78,408.52z"/>
		<path class="st5" d="M303.48,431.36c0,0,36.61-12.36,41.89-13.95C345.37,417.42,332.01,418.36,303.48,431.36z"/>
		<path class="st8" d="M508.28,723.37c-3.74,9.74-43.95,16.6-89.84,15.32c-45.89-1.29-80.04-10.23-76.31-19.96
			c3.74-9.74,43.94-16.61,89.83-15.33C477.84,704.67,512.01,713.63,508.28,723.37z"/>
		<path class="st6" d="M388.82,704.66c1.75,0.13,3.44,0.57,5.08,1.15c1.64,0.58,3.21,1.37,4.71,2.32c1.48,0.96,2.86,2.16,3.92,3.65
			c1.05,1.46,1.72,3.4,1.27,5.13c-0.41-1.72-1.35-3.02-2.47-4.15c-1.14-1.11-2.41-2.11-3.81-2.98
			C394.78,707.98,391.8,706.46,388.82,704.66z"/>
		<path class="st6" d="M399.74,705.01c1.75,0.13,3.44,0.57,5.08,1.15c1.64,0.58,3.21,1.37,4.7,2.32c1.48,0.96,2.86,2.16,3.91,3.66
			c1.05,1.46,1.71,3.4,1.26,5.13c-0.41-1.72-1.35-3.02-2.46-4.15c-1.14-1.11-2.4-2.12-3.8-2.98
			C405.69,708.33,402.72,706.81,399.74,705.01z"/>
		<path class="st6" d="M412.75,704.73c1.75,0.13,3.44,0.56,5.08,1.15c1.64,0.58,3.21,1.37,4.71,2.31c1.48,0.96,2.86,2.16,3.91,3.65
			c1.05,1.46,1.72,3.4,1.27,5.13c-0.41-1.72-1.35-3.02-2.47-4.15c-1.14-1.11-2.4-2.11-3.8-2.98
			C418.7,708.04,415.73,706.53,412.75,704.73z"/>
		<path class="st8" d="M513.35,723.37c3.74,9.74,43.95,16.6,89.84,15.32c45.89-1.29,80.04-10.23,76.31-19.96
			c-3.74-9.74-43.94-16.61-89.83-15.33C543.79,704.67,509.62,713.63,513.35,723.37z"/>
		<path class="st6" d="M632.81,704.66c-2.98,1.8-5.96,3.32-8.7,5.13c-1.4,0.86-2.67,1.87-3.81,2.98c-1.12,1.13-2.06,2.42-2.47,4.15
			c-0.45-1.74,0.22-3.67,1.27-5.13c1.05-1.49,2.44-2.7,3.92-3.65c1.49-0.94,3.07-1.73,4.71-2.32
			C629.36,705.23,631.06,704.79,632.81,704.66z"/>
		<path class="st6" d="M621.89,705.01c-2.98,1.8-5.95,3.32-8.69,5.12c-1.4,0.87-2.66,1.87-3.8,2.98c-1.11,1.13-2.05,2.42-2.46,4.15
			c-0.45-1.73,0.21-3.67,1.26-5.13c1.05-1.5,2.43-2.7,3.91-3.66c1.49-0.94,3.06-1.73,4.7-2.32
			C618.45,705.58,620.14,705.14,621.89,705.01z"/>
		<path class="st6" d="M608.88,704.73c-2.98,1.79-5.95,3.31-8.7,5.12c-1.4,0.86-2.66,1.87-3.8,2.98c-1.11,1.13-2.06,2.42-2.46,4.15
			c-0.45-1.73,0.22-3.67,1.27-5.13c1.05-1.49,2.44-2.7,3.91-3.65c1.49-0.94,3.06-1.73,4.71-2.31
			C605.44,705.3,607.13,704.86,608.88,704.73z"/>
		<path class="st4" d="M719.48,581.5c-0.18,13.39-11.19,24.1-24.58,23.91c-13.39-0.19-24.1-11.19-23.92-24.59
			c0.19-13.39,11.2-24.09,24.59-23.9C708.96,557.09,719.68,568.11,719.48,581.5z"/>
		<path class="st1" d="M649.17,348.08l11.47-9.36l-11.48,9.34L649.17,348.08l11.47-9.36l-11.48,9.34l3.42-2.78l-3.42,2.78l0,0
			l3.42-2.78l-3.42,2.78L649.17,348.08c0.1,0.13,3.33,4.09,8.28,10.59c3.71,4.87,8.4,11.17,13.46,18.33
			c7.59,10.74,16.03,23.44,23.28,36.03c3.62,6.29,6.95,12.55,9.71,18.44c2.77,5.88,4.96,11.42,6.39,16.08l0,0.01
			c0.45,1.46,0.84,3.27,1.12,5.4c0.27,2.13,0.42,4.57,0.42,7.24c0,4.31-0.39,9.22-1.15,14.44c-0.66,4.57-1.59,9.39-2.73,14.29
			c-1.99,8.57-4.63,17.38-7.46,25.7c-4.25,12.49-6.23,19.56-9.83,27.73c-1.8,4.09-6.03,11.7-7.09,13.92
			c-0.53,1.11-0.94,1.96-1.21,2.51c-0.13,0.28-0.24,0.48-0.3,0.6l-0.06,0.13l-0.01,0.02v0l-0.01,0.02l16.01,8.01l-15.99-8.04
			l-0.02,0.04l16.01,8.01l-15.99-8.04l42.54,21.4c0.13-0.25,5.84-3.34,9.05-10.47c2.4-5.35,4.3-12.59,7.14-20.69
			c4.26-12.17,7.68-27.16,11.69-42.36c2-7.6,3.74-15.42,4.99-23.32c1.25-7.9,2.03-15.88,2.03-23.88c0-4.42-0.24-8.85-0.81-13.29
			c-0.57-4.44-1.46-8.88-2.82-13.31l0,0.01c-2.07-6.76-4.73-13.44-7.76-20.1c-5.31-11.64-11.79-23.22-18.54-34.23
			c-5.07-8.25-10.29-16.16-15.28-23.41c-7.49-10.87-14.46-20.26-19.6-26.98c-5.14-6.72-12.13-15.3-12.26-15.46L649.17,348.08z"/>
		<path class="st2" d="M648.23,348.08l11.47-9.36l-11.48,9.34L648.23,348.08l11.47-9.36l-11.48,9.34l3.42-2.78l-3.42,2.78l0,0
			l3.42-2.78l-3.42,2.78L648.23,348.08c0.1,0.13,3.33,4.09,8.28,10.59c3.71,4.87,8.4,11.17,13.46,18.33
			c7.59,10.74,16.03,23.44,23.28,36.03c3.62,6.29,6.95,12.55,9.71,18.44c2.77,5.88,4.96,11.42,6.39,16.08l0,0.01
			c0.45,1.46,0.84,3.27,1.12,5.4c0.27,2.13,0.42,4.57,0.42,7.24c0,4.31-0.39,9.22-1.15,14.44c-0.66,4.57-1.59,9.39-2.73,14.29
			c-1.99,8.57-4.63,17.38-7.46,25.7c-4.25,12.49-6.23,19.56-9.83,27.73c-1.8,4.09-6.03,11.7-7.09,13.92
			c-0.53,1.11-0.94,1.96-1.21,2.51c-0.13,0.28-0.24,0.48-0.3,0.6l-0.06,0.13l-0.01,0.02v0l-0.01,0.02l16.01,8.01l-15.99-8.04
			l-0.02,0.04l16.01,8.01l-15.99-8.04l42.54,21.4c0.13-0.25,5.84-3.34,9.05-10.47c2.4-5.35,4.3-12.59,7.14-20.69
			c4.26-12.17,7.68-27.16,11.69-42.36c2-7.6,3.74-15.42,4.99-23.32c1.25-7.9,2.03-15.88,2.03-23.88c0-4.42-0.24-8.85-0.81-13.29
			c-0.57-4.44-1.46-8.88-2.82-13.31l0,0.01c-2.07-6.76-4.73-13.44-7.76-20.1c-5.31-11.64-11.79-23.22-18.54-34.23
			c-5.07-8.25-10.29-16.16-15.28-23.41c-7.49-10.87-14.46-20.26-19.6-26.98c-5.14-6.72-12.13-15.3-12.26-15.46L648.23,348.08z"/>
		<polygon class="st3" points="736.31,562.53 690.22,541.27 680.39,562.58 726.46,583.84 		"/>
		<path class="st1" d="M725.55,572.53c2.05-1.01,2.88-3.49,1.86-5.55c-1.03-2.03-3.51-2.88-5.56-1.85
			c-2.05,1.02-2.88,3.49-1.85,5.55C721.01,572.71,723.5,573.54,725.55,572.53z"/>
		<path class="st2" d="M723.42,571.05c0.34-0.16,0.46-0.56,0.32-0.87c-0.17-0.33-0.58-0.47-0.89-0.31c-0.33,0.17-0.47,0.57-0.3,0.88
			C722.71,571.08,723.1,571.21,723.42,571.05z"/>
		<path class="st2" d="M722.35,568.88c0.33-0.14,0.44-0.56,0.3-0.87c-0.17-0.34-0.57-0.47-0.88-0.3c-0.32,0.17-0.47,0.56-0.3,0.88
			C721.63,568.93,722.03,569.05,722.35,568.88z"/>
		<path class="st2" d="M725.65,569.95c0.32-0.17,0.45-0.57,0.3-0.89c-0.16-0.32-0.57-0.46-0.9-0.3c-0.33,0.17-0.45,0.57-0.29,0.9
			C724.92,569.97,725.31,570.11,725.65,569.95z"/>
		<path class="st2" d="M724.57,567.79c0.32-0.16,0.46-0.56,0.3-0.89c-0.17-0.33-0.56-0.46-0.89-0.3c-0.32,0.17-0.46,0.57-0.3,0.89
			C723.85,567.82,724.24,567.95,724.57,567.79z"/>
	</g>
</g>
</svg>
