<?xml version="1.0" encoding="UTF-8"?>
<svg width="198px" height="43px" viewBox="0 0 198 43" version="1.1" xmlns="http://www.w3.org/2000/svg" xmlns:xlink="http://www.w3.org/1999/xlink">
    <!-- Generator: Sketch 61.1 (89650) - https://sketch.com -->
    <title>Group 4</title>
    <desc>Created with Sketch.</desc>
    <defs>
        <polygon id="path-1" points="9.16412015e-06 2.78740467e-05 5.31692812 2.78740467e-05 5.31692812 5.35684899 9.16412015e-06 5.35684899"></polygon>
        <polygon id="path-3" points="0.228016827 0.267653061 44.5190024 0.267653061 44.5190024 42.7548122 0.228016827 42.7548122"></polygon>
    </defs>
    <g id="Page-1" stroke="none" stroke-width="1" fill="none" fill-rule="evenodd">
        <g id="Artboard" transform="translate(-9.000000, -10.000000)">
            <g id="Group-4" transform="translate(9.000000, 10.000000)">
                <g id="Group" transform="translate(0.000000, 7.000000)">
                    <g id="Group-3" fill="#2F1800">
                        <path d="M7.03747534,9.49456306 C7.18960137,9.49312346 7.36197337,9.4643314 7.55234179,9.41049027 C7.73314962,9.35002696 7.8779646,9.23687419 7.99241061,9.06268228 C8.0264351,9.00308273 8.06523989,8.89914342 8.10854378,8.74856099 C8.15465962,8.59365975 8.17996709,8.33366752 8.1794047,7.96599302 L8.16787574,4.80520154 L10.5895196,4.79800353 L10.5990802,8.00975693 C10.600205,8.25247393 10.5937375,8.48194659 10.5751787,8.69615946 C10.5591506,8.91238777 10.5369363,9.11681134 10.504599,9.31374897 C10.4404867,9.70474504 10.2818932,10.0401724 10.0409098,10.3240621 C9.89384532,10.487313 9.73328347,10.621484 9.56091147,10.7219682 C9.39022663,10.8187095 9.21701104,10.8961602 9.03985874,10.9491375 C8.86523719,11.0029787 8.69398996,11.0349378 8.52892901,11.0501976 C8.36386805,11.0666091 8.21455397,11.0769742 8.08267392,11.0769742 L2.53921284,11.0945374 C2.40311488,11.0945374 2.24958289,11.0873394 2.08283477,11.0732313 C1.91636784,11.056244 1.74483942,11.0260123 1.57246742,10.972747 C1.39812706,10.9203455 1.22659864,10.8480774 1.05366425,10.7493207 C0.883541801,10.6511398 0.722698759,10.5175447 0.578727364,10.3542937 C0.327058618,10.0704041 0.165653187,9.73440085 0.102103314,9.34685983 C0.0683600181,9.1513618 0.0453020994,8.94636239 0.0301176163,8.73157368 C0.0115588038,8.51736081 0.00565372702,8.28875192 0.00424775637,8.045747 L2.9844416e-05,6.41784438 L2.41970533,6.4097826 L2.42532922,7.98528369 C2.42532922,8.3529582 2.45204266,8.61410211 2.49872089,8.76756374 C2.54202478,8.91757034 2.58111077,9.02294925 2.617666,9.07909375 C2.72873768,9.25414942 2.87720818,9.36615051 3.06110915,9.42603798 C3.24922802,9.47671199 3.42216241,9.5034886 3.57625679,9.5034886 L7.03747534,9.49456306 Z M2.70343021,4.17811065 L2.70005588,2.79206126 L5.06630449,2.78371157 L5.07136598,4.17120055 L2.70343021,4.17811065 Z M5.5685172,4.16832135 L5.56429929,2.78255988 L7.93139148,2.77363435 L7.93560939,4.16169918 L5.5685172,4.16832135 Z" id="Fill-10"></path>
                        <polygon id="Fill-12" points="11.7149059 2.78170618 13.9211712 2.77363435 13.9463108 11.085889 11.7384743 11.0945374"></polygon>
                        <path d="M15.0620133,11.2594767 C15.2495506,11.2594767 15.4151834,11.2594767 15.5550112,11.249971 C15.6975395,11.2430577 15.8151629,11.2292312 15.916583,11.2093555 C16.1257245,11.1664357 16.3111613,11.0852049 16.475594,10.9596139 C16.6394265,10.834023 16.7663517,10.6865401 16.8542692,10.5180293 C16.943987,10.3489424 16.9895961,10.0937278 16.9886959,9.75987484 L16.9703922,4.44530432 L19.5028951,4.43781496 L19.5248232,10.2368899 C19.5253996,10.3771716 19.5145974,10.5373288 19.4983942,10.71909 C19.4800906,10.9014273 19.4353817,11.0852049 19.3654678,11.2727271 C19.3000548,11.4596732 19.1977345,11.6425866 19.0699091,11.8206032 C18.9390831,12.0023643 18.7629482,12.1587769 18.5346028,12.2930094 C18.2126389,12.4940701 17.7787527,12.624558 17.2332444,12.6844729 C16.9595901,12.7147184 16.6436274,12.7354582 16.2859563,12.744964 C15.9243845,12.7590785 15.5190041,12.7628232 15.0650139,12.7538936 L15.0620133,11.2594767 Z" id="Fill-14"></path>
                        <path d="M20.6405257,2.78171598 L22.9385525,2.77363435 L22.9524289,7.85236098 C22.9537893,8.0388157 22.9720189,8.24027917 23.0054854,8.45386508 C23.0403122,8.66716237 23.1276514,8.86891446 23.2579799,9.05103975 C23.3298102,9.15552367 23.4133402,9.230856 23.5028561,9.28915918 C23.5920998,9.3468851 23.6854249,9.39422036 23.7844637,9.42394921 C23.8807816,9.45858476 23.9825413,9.47936609 24.0900147,9.48889087 C24.1980323,9.49783839 24.3076824,9.50159057 24.4225021,9.50159057 L24.5419473,9.50159057 L24.5454844,11.0907852 L23.7009337,11.0945374 C23.5480221,11.0945374 23.3744321,11.0928056 23.1798916,11.0841467 C22.9872557,11.0775082 22.7864572,11.0573042 22.579945,11.0203596 C22.3728886,10.9842809 22.168553,10.9256891 21.9682987,10.8494909 C21.7647794,10.7712722 21.5756806,10.6653452 21.4069881,10.5218962 C21.2339423,10.383354 21.0987162,10.2260509 20.9988612,10.0482551 C20.8992782,9.87017058 20.8239108,9.68660215 20.7752076,9.50303372 C20.7226953,9.31657899 20.6919497,9.1324333 20.6797059,8.9540602 C20.6655575,8.77424395 20.657395,8.61232274 20.657395,8.46136945 L20.6405257,2.78171598 Z" id="Fill-16"></path>
                        <path d="M28.8325615,6.60593557 L28.8441885,6.58819926 L28.8477661,7.4529873 C28.8477661,7.54681809 28.8501511,7.63979068 28.8584987,7.74191748 C28.8644612,7.83803683 28.8799639,7.94073577 28.9020253,8.04457899 C28.9279624,8.14813615 28.9577752,8.25140723 29.0030906,8.35324797 C29.0490023,8.45365836 29.1083297,8.55063591 29.1825635,8.64303635 C29.2612693,8.7391557 29.3513038,8.81467804 29.4475991,8.86817304 C29.5438944,8.92910584 29.6440653,8.97516302 29.7534782,9.00520032 C29.8625929,9.03695403 29.9764778,9.06241421 30.0942382,9.0681356 C30.210508,9.07872017 30.3303554,9.08158087 30.4555691,9.08158087 L30.6758855,9.08158087 L30.681848,10.6618287 L29.6649342,10.6652615 C29.5286899,10.6675501 29.3742597,10.6675501 29.2108857,10.6601123 C29.0403566,10.6586819 28.8677406,10.6469531 28.6849883,10.6272143 C28.5055154,10.6111944 28.3206762,10.5788685 28.1310669,10.5379606 C27.9429483,10.4967666 27.7634754,10.4352617 27.5884744,10.3545901 C27.4095978,10.4372641 27.2301248,10.4981969 27.0443913,10.5413934 C26.857167,10.5840178 26.6753091,10.617774 26.4964324,10.6337939 C26.3190464,10.6543909 26.1440454,10.6675501 25.9776901,10.6706968 C25.8095461,10.6769904 25.6580972,10.6769904 25.5215547,10.6769904 L24.5517451,10.6807093 L24.5454844,9.10131966 L24.7210816,9.09845897 C24.8442084,9.09845897 24.9658445,9.09559827 25.0856919,9.08444156 C25.204943,9.07500127 25.3179334,9.04982716 25.4225763,9.01835951 C25.5290079,8.98832222 25.6306694,8.93997648 25.7260703,8.88219044 C25.82326,8.82554868 25.9094189,8.7494542 25.9875284,8.65333485 C26.0647434,8.56036227 26.1228784,8.46338472 26.166405,8.36154398 C26.2099317,8.25884504 26.2451107,8.15843465 26.2665759,8.0520168 C26.2892336,7.94845965 26.3032456,7.84661891 26.3101026,7.74849708 C26.3169595,7.64951704 26.3190464,7.55339769 26.3190464,7.46185546 L26.3101026,4.44496669 L28.824214,4.43781496 L28.8325615,6.60593557 Z M24.8266189,12.758718 L24.8221469,11.3790049 L27.3299976,11.3724253 L27.3356621,12.7492777 L24.8266189,12.758718 Z M27.8636463,12.7478474 L27.85828,11.3678482 L30.3861053,11.3621268 L30.389981,12.7389792 L27.8636463,12.7478474 Z" id="Fill-18"></path>
                        <path d="M30.1239968,9.00756932 L31.1887011,9.00395489 L31.1724873,4.47006681 L33.5325865,4.46283795 L33.5459558,8.99616996 L34.9136016,8.99255553 L34.8990945,4.45560908 L37.2788209,4.45004842 L37.2950347,8.98755093 L38.3076842,8.98032207 C38.3494987,8.98032207 38.3989934,8.97198107 38.4587283,8.95279678 C38.5221611,8.93138822 38.5636911,8.90414096 38.5892918,8.87633763 C38.6060745,8.84575398 38.6140392,8.79876636 38.6183059,8.74371578 C38.6220038,8.6861629 38.6242794,8.63111231 38.6242794,8.57772993 L38.6109102,4.44559989 L40.9931967,4.43781496 L41.0077037,8.97337124 L41.834606,8.9697568 L41.8388728,10.5014419 L30.1276947,10.5398105 L30.1239968,9.00756932 Z" id="Fill-20"></path>
                        <path d="M45.7435172,8.44479032 C45.7457456,8.59835291 45.735718,8.75940637 45.7262475,8.93659398 C45.7128773,9.11378159 45.6814017,9.29615518 45.6307065,9.48227419 C45.581404,9.66608833 45.5045256,9.84932625 45.4073134,10.024209 C45.3067586,10.2002442 45.1680432,10.3595689 44.996738,10.5059288 C44.8195833,10.6482551 44.6285014,10.7583131 44.4176428,10.8337979 C44.2106839,10.9150449 44.0001038,10.9732431 43.7923092,11.0086806 C43.5808935,11.0449825 43.3758844,11.0686075 43.1817385,11.0775389 C42.9839715,11.0884871 42.8062598,11.0916563 42.6491604,11.0930968 L41.8452794,11.0945374 L41.8388728,9.50157756 L41.9023811,9.50157756 C42.0202056,9.50157756 42.133852,9.49639158 42.2435988,9.48601962 C42.3550168,9.47852876 42.461421,9.45144643 42.5600259,9.41802568 C42.659188,9.38863846 42.7527791,9.34196465 42.8441419,9.28059724 C42.9341119,9.22528013 43.0140544,9.14777856 43.088983,9.0503974 C43.1588978,8.95647356 43.2159995,8.85966862 43.2544387,8.75710149 C43.2939921,8.65511057 43.3274175,8.55196721 43.3480299,8.44623087 C43.3689207,8.34049452 43.3795055,8.24080848 43.3867476,8.14198677 C43.3931542,8.03941964 43.3953825,7.9426147 43.3953825,7.85243629 L43.3795055,2.78054899 L45.7279187,2.77363435 L45.7435172,8.44479032 Z" id="Fill-22"></path>
                        <polygon id="Fill-24" points="47.4173852 2.78170618 49.6254672 2.77363435 49.6487902 11.0873304 47.4409702 11.0945374"></polygon>
                        <path d="M52.9958976,11.2589417 C53.1728494,11.2618224 53.32373,11.2603821 53.4551958,11.2508759 C53.583888,11.2442504 53.6917787,11.2301351 53.7835828,11.2108346 C53.974957,11.169065 54.1455297,11.0846615 54.2941914,10.9605048 C54.4569982,10.8334675 54.5754283,10.6845371 54.6508686,10.519187 C54.7313013,10.3449067 54.772627,10.0931366 54.7717949,9.75782718 L54.7540443,4.44588082 L57.1065605,4.43781496 L57.1215376,9.13617966 L58.0121211,9.1324348 L58.0165588,10.7205454 L57.0852042,10.7242903 C57.0580235,10.9841263 56.9784229,11.2589417 56.8469572,11.5490247 C56.7260309,11.8385316 56.5135777,12.087421 56.2115393,12.291084 C55.9114423,12.4935948 55.5126073,12.624377 55.0069911,12.6840067 C54.7518255,12.7159821 54.4625453,12.7355706 54.1305526,12.7462291 C53.7977279,12.758616 53.4216359,12.7623608 53.0000579,12.7548711 L52.9958976,11.2589417 Z" id="Fill-26"></path>
                        <path d="M62.3039054,6.6074651 L62.3191077,6.59115409 L62.3214924,7.45449285 C62.3214924,7.54549111 62.3268579,7.6416402 62.3298388,7.74150935 C62.3366947,7.84195082 62.3527912,7.9409615 62.3748495,8.04426454 C62.4001867,8.15071533 62.4329759,8.25058448 62.4773905,8.35331521 C62.5200165,8.45661826 62.5805277,8.54990577 62.6568372,8.64204866 C62.7355315,8.73819775 62.821976,8.81603274 62.921238,8.87183355 C63.016625,8.93049595 63.1167813,8.9751366 63.2267745,9.00518319 C63.3361714,9.03751905 63.4500396,9.06384558 63.5653982,9.07128569 C63.6828434,9.08015659 63.8044618,9.08301817 63.9290611,9.08301817 L64.1481531,9.08158738 L64.1529224,10.6643274 L63.1406281,10.6689059 C63.0029131,10.6689059 62.8493997,10.6689059 62.6836648,10.6643274 C62.5131606,10.6608935 62.3405698,10.6483026 62.1563537,10.6308469 C61.9769069,10.6131051 61.7926908,10.5807693 61.6040035,10.5421379 C61.4174027,10.4980696 61.2325904,10.4371179 61.0585092,10.3584245 C60.8826394,10.4385487 60.7046831,10.5015035 60.5198708,10.5432826 C60.3326739,10.5859201 60.1523329,10.6173975 59.9719919,10.6380009 C59.7907566,10.6554565 59.6172715,10.6717675 59.4509405,10.6746291 C59.2828209,10.67978 59.1313941,10.67978 58.9945734,10.6812107 L58.0213281,10.6820692 L58.0165588,9.10133229 L58.1930247,9.10133229 C58.3191143,9.10133229 58.4413289,9.09532297 58.5605626,9.08444896 C58.6792002,9.0787258 58.7921741,9.05211311 58.8991864,9.01834646 C59.0047083,8.98915834 59.1039703,8.94222842 59.2032324,8.88213524 C59.2956386,8.82547595 59.3850638,8.75136102 59.4631619,8.65320882 C59.5394715,8.5599213 59.5981941,8.46319989 59.640224,8.36333074 C59.686129,8.26060001 59.7204087,8.15729696 59.7403803,8.05456623 C59.7618424,7.94983239 59.7764485,7.84767398 59.7830064,7.75095257 C59.7877757,7.64908031 59.7907566,7.554362 59.7907566,7.46193296 L59.7824102,4.44668586 L62.2970495,4.43781496 L62.3039054,6.6074651 Z M58.3033159,12.758718 L58.2970561,11.3811533 L60.8072241,11.3728547 L60.8108011,12.7518502 L58.3033159,12.758718 Z M61.3351314,12.7504194 L61.3312563,11.3714239 L63.8625883,11.3619807 L63.8664634,12.742407 L61.3351314,12.7504194 Z" id="Fill-28"></path>
                        <path d="M64.1529224,9.11852505 L68.730594,9.10450671 L68.7264251,7.5896669 C68.7250355,7.42831286 68.7178095,7.28383806 68.7008562,7.15166506 C68.6850146,7.02349732 68.6566664,6.8944713 68.6180351,6.76687573 C68.5552245,6.56747189 68.4365513,6.3920995 68.2597922,6.23961421 C68.0897033,6.08913154 67.8053879,6.01818153 67.40768,6.01818153 L65.090635,6.02476157 L65.0853544,4.44812661 L68.4876892,4.43781496 C68.8740023,4.43696915 69.2277984,4.48045463 69.5471321,4.57114476 C69.8706346,4.66069053 70.1568954,4.82776635 70.4061924,5.07580527 C70.5743359,5.24059238 70.704126,5.42540569 70.8008432,5.62795651 C70.8961709,5.8287908 70.9698205,6.04221299 71.0153999,6.26450393 C71.0623689,6.48822531 71.090717,6.71537976 71.1012781,6.94653945 C71.1135067,7.17741305 71.1193431,7.40628403 71.1193431,7.63429675 L71.1257354,9.09506578 L71.9592268,9.09220489 L71.9628398,10.6674094 L64.1593146,10.6937296 L64.1529224,9.11852505 Z M66.4132711,12.758718 L66.4091022,11.385206 L68.7478252,11.3757651 L68.7519941,12.7498492 L66.4132711,12.758718 Z" id="Fill-30"></path>
                        <path d="M73.6363935,2.67497791 L76.1123722,2.66767003 L76.1294013,7.81066657 C76.1294013,7.9995023 76.1461368,8.20090759 76.1890033,8.4198518 C76.224236,8.63645748 76.3146666,8.84020129 76.4600016,9.02728313 C76.5375135,9.12871656 76.6270633,9.20793402 76.7233661,9.26785867 C76.8214305,9.32486017 76.9206693,9.37279989 77.026661,9.40203142 C77.1320655,9.43710927 77.2409933,9.4604945 77.3549124,9.4680947 C77.472942,9.47627953 77.5912652,9.48066426 77.7145796,9.48066426 L78.0939185,9.48066426 L78.0992034,11.0916142 L76.9362304,11.0945374 C76.7723983,11.0945374 76.5833161,11.0916142 76.3757367,11.084891 C76.1655148,11.0790447 75.9467784,11.0565364 75.7283356,11.0205816 C75.5040207,10.9822883 75.2844035,10.9261637 75.0644927,10.8451924 C74.8495731,10.7700673 74.645517,10.6601568 74.4620133,10.5139991 C74.2761608,10.3731031 74.1278898,10.2143758 74.0230725,10.0351865 C73.9138511,9.85541256 73.8357519,9.66803841 73.7784987,9.48066426 C73.7250625,9.29475168 73.6907106,9.10825448 73.6769111,8.92614201 C73.6604692,8.74490648 73.6537162,8.58004062 73.6537162,8.4294982 L73.6363935,2.67497791 Z M74.0125027,1.41012932 L75.0624374,1.40720617 C75.1255627,1.40720617 75.1581529,1.38762104 75.1581529,1.3487431 C75.1581529,1.32331166 75.1496384,1.30840358 75.1226266,1.2993418 C75.0964957,1.29261855 75.0730072,1.28355677 75.0495188,1.26572553 L74.3137423,1.06256635 C74.2321199,1.03567334 74.1593056,0.986856675 74.0976484,0.915531726 C74.0562499,0.854145499 74.0283574,0.783112865 74.0177876,0.707987816 C74.0034009,0.630816559 73.9969415,0.563584025 73.9969415,0.499859275 C73.9969415,0.429411272 74.0028137,0.366563469 74.009273,0.305177242 C74.0195492,0.242914069 74.049497,0.181527842 74.1079246,0.124526346 C74.1440381,0.0891561866 74.1857301,0.0628478036 74.2362304,0.0397548897 C74.2858498,0.0157850298 74.3533791,0.00526167658 74.4414609,0.00380009975 L75.6722569,0 L75.6740185,0.470627739 L74.7177441,0.474427839 C74.6554996,0.474427839 74.6229094,0.477350992 74.6146884,0.486412769 C74.6003017,0.502197798 74.5911999,0.516228936 74.5911999,0.532013966 C74.5911999,0.563584025 74.6088163,0.583753785 74.642581,0.596615661 C74.6786945,0.607723645 74.7171569,0.619708575 74.7567937,0.627893406 L75.3892208,0.807667356 C75.4268024,0.813805978 75.4726049,0.827252485 75.5192882,0.848299191 C75.5650907,0.867007375 75.6041403,0.894777335 75.6387858,0.934532224 C75.7110129,0.993579928 75.7509433,1.06256635 75.7623939,1.14353771 C75.776487,1.22304749 75.7811847,1.2955417 75.7832399,1.35780487 C75.7832399,1.41451405 75.7811847,1.4761926 75.7700277,1.53845577 C75.7623939,1.60130357 75.7342077,1.6664899 75.6916349,1.73459938 C75.6337945,1.80504738 75.5741925,1.84626385 75.5095992,1.85591026 C75.4455931,1.87023371 75.3821743,1.87695696 75.3161129,1.87695696 L74.0154387,1.87988012 L74.0125027,1.41012932 Z" id="Fill-32"></path>
                        <path d="M81.8328701,6.43133765 L81.844501,6.42183463 L81.8468869,7.2892013 C81.8474833,7.47523014 81.8650788,7.67594547 81.9023575,7.89077134 C81.9414255,8.10098969 82.0365606,8.30199299 82.1832894,8.48715792 C82.2611272,8.58823551 82.3497013,8.66713939 82.4481169,8.7232936 C82.547129,8.78002376 82.6485269,8.82811481 82.7573805,8.85691184 C82.8635501,8.89146828 82.976579,8.91220215 83.0899061,8.92055329 C83.2065137,8.93063225 83.3275947,8.93437586 83.4564297,8.93437586 L83.6729441,8.93437586 L83.6777158,10.5199406 L82.6646313,10.5242601 C82.5262529,10.5242601 82.3771383,10.5222443 82.2128141,10.516197 C82.048788,10.5095736 81.8737275,10.5006466 81.6822643,10.4873999 C81.3026186,10.4600427 80.9346038,10.3693321 80.5832898,10.2112364 C80.2346599,10.3730757 79.8714168,10.4660901 79.4929639,10.4934473 C79.3047813,10.5095736 79.1306155,10.5199406 78.968677,10.5280037 C78.8067386,10.5340511 78.657624,10.5369308 78.5162634,10.5369308 L77.547615,10.5398105 L77.5413522,8.95366988 L77.7164127,8.95366988 C77.8416689,8.95136611 77.9612588,8.94704656 78.0796558,8.93811948 C78.1974564,8.92775255 78.3089941,8.90788259 78.4151637,8.87159833 C78.5267014,8.8407855 78.6301869,8.79355837 78.7199539,8.73510039 C78.8165801,8.67606647 78.9036631,8.6000423 78.9886584,8.49810079 C79.1335978,8.31207195 79.2239612,8.11135662 79.2621345,7.89653075 C79.2964309,7.6834327 79.3170087,7.48156549 79.3158158,7.29726447 L79.3065707,4.262633 L81.826309,4.25456983 L81.8328701,6.43133765 Z M77.8058814,3.62506666 L77.8020045,2.23589773 L80.3124977,2.22754659 L80.3187605,3.61527567 L77.8058814,3.62506666 Z M80.8439421,3.61383582 L80.8391704,2.2255308 L83.3580141,2.21890748 L83.3633822,3.6072125 L80.8439421,3.61383582 Z" id="Fill-34"></path>
                        <path d="M87.5826745,7.88951285 C87.5826745,8.0445482 87.5768271,8.20649963 87.5634615,8.38285955 C87.54759,8.56094849 87.5169607,8.74335997 87.4676753,8.92865316 C87.4189469,9.11337 87.3429305,9.29722233 87.2435245,9.47098873 C87.1457891,9.64446695 87.0085141,9.80613021 86.8333702,9.95021511 C86.6576693,10.0943 86.4660969,10.2052454 86.2592098,10.2813222 C86.0487029,10.3611452 85.8423727,10.418491 85.6310305,10.4556649 C85.4199667,10.4925507 85.2180917,10.5153161 85.0181658,10.5242494 C84.8210244,10.5331826 84.6492218,10.5383697 84.4899494,10.5383697 L83.6832848,10.5398105 L83.6777158,8.94796053 L83.7420373,8.94796053 C83.859821,8.94796053 83.9731494,8.94277348 84.0850856,8.93239936 C84.1967434,8.92433061 84.300883,8.89925984 84.4014029,8.8652558 C84.4994167,8.83586248 84.5954813,8.78629727 84.6826356,8.72866331 C84.7717391,8.67160569 84.853046,8.59408802 84.9304546,8.49726296 C84.9989529,8.40360778 85.0538072,8.30678272 85.0930684,8.20477061 C85.1328865,8.10074131 85.1657434,7.99815287 85.1877408,7.8909537 C85.2089029,7.78750074 85.22199,7.68548863 85.2278374,7.58578188 C85.2317356,7.4863633 85.2378615,7.38953824 85.2373046,7.29703574 L85.22199,2.22467087 L87.5659676,2.21890748 L87.5826745,7.88951285 Z" id="Fill-36"></path>
                        <path d="M92.8977553,8.83474629 C92.9424075,9.29690868 93.052116,9.68498619 93.236639,9.99926819 C93.4152478,10.3132608 93.6367346,10.561561 93.8966637,10.7470626 C94.1536357,10.9325642 94.4378131,11.060187 94.741803,11.1290628 C95.0493414,11.198228 95.34446,11.2205113 95.6339601,11.1935977 L97.2751506,11.1892568 L97.4910189,11.1892568 C97.568495,11.1892568 97.6477452,11.1831795 97.7314312,11.1742083 C97.8086115,11.1640795 97.8899317,11.1498992 97.9647464,11.1267477 C98.0434052,11.1033067 98.1102357,11.069737 98.1755876,11.0231446 C98.3219641,10.9073869 98.4233926,10.7545868 98.4825346,10.5699534 L96.3220773,10.5751625 C96.1502697,10.5751625 95.9660424,10.5699534 95.7865464,10.5595352 C95.6023191,10.5447761 95.4254845,10.5120746 95.2495371,10.4599836 C95.0729982,10.4081821 94.9041478,10.3271517 94.7471257,10.2235486 C94.5865552,10.1150258 94.4410659,9.97032878 94.3189376,9.78656352 C94.1181505,9.5171376 93.9824197,9.19012226 93.9058308,8.80580687 C93.8298333,8.42004452 93.7899124,7.95209424 93.7875468,7.40021967 C93.7869553,7.09085736 93.7990794,6.81622235 93.8233277,6.58499645 C93.852603,6.34971904 93.891341,6.13759316 93.9451602,5.95238092 C93.998388,5.76456415 94.0678798,5.59758374 94.1503829,5.45288669 C94.2361388,5.30616387 94.3363845,5.16580773 94.45319,5.03095007 C94.5788667,4.89088332 94.7140062,4.77281052 94.8547642,4.67470592 C94.9943393,4.57689071 95.1519527,4.49672854 95.3216903,4.43364062 C95.4929064,4.37286786 95.6818651,4.32482844 95.8932977,4.29733599 C96.1017733,4.27071174 96.3398199,4.25421627 96.6056632,4.25421627 L99.3646376,4.24466627 C99.4634047,4.24466627 99.5642418,4.248139 99.6656704,4.25132233 C99.7718303,4.25421627 99.8717802,4.2675284 99.9743916,4.28460265 C100.07789,4.30457085 100.171334,4.33061632 100.269806,4.37286786 C100.363842,4.40933152 100.456399,4.46489519 100.543338,4.5331922 C100.635008,4.60351497 100.705682,4.67788925 100.761867,4.76007718 C100.816278,4.8425545 100.857382,4.92416364 100.889023,5.00721975 C100.916228,5.08796071 100.933971,5.17246379 100.943729,5.2555199 C100.952009,5.33944419 100.957332,5.41729121 100.957332,5.48703519 L100.970934,9.85688629 C100.972413,10.0750895 100.964133,10.2767971 100.950235,10.4651927 C100.936928,10.6530095 100.912088,10.8272248 100.875716,10.9965203 C100.839048,11.1603174 100.78375,11.3136963 100.714849,11.4601297 C100.644175,11.6091676 100.555462,11.7440253 100.441909,11.8702011 C100.184937,12.1795634 99.8513763,12.3945833 99.4421136,12.5245212 C99.0334424,12.6506971 98.5706562,12.7181259 98.0540508,12.7181259 L95.6129647,12.7580623 C95.3255345,12.7597986 95.0555513,12.7580623 94.8024235,12.7531426 C94.55314,12.7522744 94.3142063,12.734332 94.0900581,12.7114698 C93.86177,12.6891865 93.6456059,12.655038 93.4356518,12.6067091 C93.2256977,12.5592485 93.0166308,12.4926879 92.8105209,12.4096318 C92.5922869,12.3228135 92.367843,12.2041619 92.1398506,12.0504937 C91.9115624,11.8976936 91.7069311,11.7121919 91.5235909,11.4986191 C91.3387721,11.2850462 91.1912128,11.0439809 91.0803216,10.774555 C90.9679518,10.5022352 90.9170897,10.2087895 90.9324666,9.88727267 L92.8977553,8.83474629 Z M94.7690083,3.63057196 L94.7630941,2.23800749 L97.257408,2.22701051 L97.261548,3.62217953 L94.7690083,3.63057196 Z M98.4695234,6.44319334 C98.4695234,6.35261298 98.4553293,6.27852809 98.4278283,6.21486138 C98.3997358,6.15235226 98.348578,6.09765677 98.2749462,6.04325068 C98.1998358,5.99984156 98.1256126,5.97292791 98.0694277,5.96193093 C98.0132428,5.94919759 97.9428638,5.94254152 97.8671621,5.9439885 L97.5871247,5.94630365 C97.4987074,5.94630365 97.4123601,5.94919759 97.3198028,5.95527487 C97.2310898,5.96193093 97.1417854,5.97669003 97.0536638,5.99984156 C96.9643594,6.02183551 96.8818563,6.05598402 96.7996489,6.1057598 C96.7203987,6.15090529 96.6491325,6.21717654 96.5799364,6.29791749 C96.5518439,6.32830388 96.5216815,6.37287057 96.4912234,6.42988121 C96.461061,6.48544488 96.4329685,6.55895098 96.406946,6.65097831 C96.3767836,6.74213746 96.3540139,6.85355419 96.3412984,6.98928003 C96.3244429,7.12269072 96.3155716,7.28301505 96.3170502,7.47430456 C96.3176416,7.75617443 96.3448469,7.98537457 96.3971876,8.15843224 C96.4489369,8.32946417 96.5231601,8.46229606 96.6210401,8.56271582 C96.6967419,8.64577193 96.7851591,8.71088561 96.8777164,8.75458412 C96.9770749,8.80059778 97.0725893,8.83098416 97.1710607,8.84747963 C97.2704193,8.86455388 97.3712564,8.8732357 97.4697278,8.87410388 C97.5714521,8.87699783 97.6660793,8.87699783 97.7630722,8.87699783 L98.4778033,8.87555086 L98.4695234,6.44319334 Z M97.7822933,3.61986438 L97.7775619,2.22701051 L100.269806,2.21890748 L100.274242,3.61176134 L97.7822933,3.61986438 Z" id="Fill-38"></path>
                        <path d="M102.086807,2.22554752 L104.385698,2.21890748 L104.400665,7.29738242 C104.400665,7.48186002 104.415359,7.68308206 104.453457,7.89845028 C104.485567,8.11237501 104.572102,8.31504055 104.705442,8.49922945 C104.778099,8.59911873 104.857559,8.67620092 104.945998,8.73538387 C105.036615,8.79370074 105.13213,8.84046971 105.227101,8.86789595 C105.327514,8.90398312 105.427927,8.92476933 105.536232,8.93429634 C105.641544,8.94093638 105.75393,8.94844251 105.866861,8.94699903 L105.986051,8.94699903 L105.991765,10.5380101 L105.146008,10.5394536 C104.99362,10.540897 104.819734,10.5380101 104.62435,10.5299266 C104.429782,10.5224204 104.230316,10.5016342 104.024591,10.4661244 C103.819411,10.4314808 103.616408,10.3728752 103.412044,10.2946382 C103.208496,10.2198656 103.021548,10.1116041 102.85256,9.96725543 C102.678401,9.82694852 102.544517,9.66989717 102.443831,9.4929257 C102.346412,9.31335595 102.269673,9.13263142 102.221507,8.94844251 C102.168443,8.76136664 102.134972,8.57833252 102.127081,8.39789668 C102.10776,8.22034782 102.102318,8.05521294 102.101501,7.90884339 L102.086807,2.22554752 Z" id="Fill-40"></path>
                        <path d="M105.995399,10.5398105 L105.991765,8.94681372 L107.025219,8.94393411 C106.960646,8.73429896 106.91564,8.5174648 106.901943,8.2914159 C106.883214,8.06795865 106.875387,7.82635989 106.873989,7.5726668 C106.873989,7.36648717 106.87958,7.14878913 106.890482,6.92014859 C106.902502,6.69122009 106.929337,6.46085179 106.965118,6.23797046 C107.001738,6.00932992 107.061559,5.79134391 107.134798,5.58487632 C107.213628,5.37581709 107.313144,5.18691508 107.44285,5.02306563 C107.551031,4.86958275 107.680737,4.7448959 107.828613,4.64439773 C107.978166,4.54418752 108.129396,4.4644225 108.284261,4.40251101 C108.438007,4.34031157 108.587839,4.29970916 108.737113,4.27667233 C108.880796,4.25392346 109.01134,4.23923748 109.124553,4.23923748 L111.158196,4.23258126 C111.543679,4.23117459 111.898973,4.27667233 112.224356,4.36622801 C112.550857,4.45693553 112.836265,4.62827195 113.084775,4.88138912 C113.253337,5.0458145 113.386397,5.23414058 113.483117,5.43628877 C113.580676,5.63872491 113.65112,5.85210355 113.697523,6.07844041 C113.744206,6.30074582 113.774956,6.53111412 113.786976,6.76580183 C113.795641,7.00336914 113.801512,7.23143375 113.801512,7.45517897 C113.802909,7.69447404 113.795641,7.92397846 113.783342,8.14311631 C113.773278,8.35851067 113.744206,8.56584214 113.708425,8.76021539 C113.668731,8.95286089 113.612264,9.13283612 113.541261,9.30273274 C113.46327,9.468022 113.367948,9.62611225 113.247466,9.76922855 C113.101268,9.93451781 112.945006,10.0689953 112.776165,10.1671898 C112.604248,10.2650963 112.432612,10.3434215 112.259298,10.3964063 C112.087382,10.4482391 111.917702,10.4799148 111.747742,10.4969044 C111.582815,10.5138941 111.431025,10.5213811 111.299363,10.5213811 L105.995399,10.5398105 Z M109.064452,3.6140755 L109.060818,2.22639445 L111.414812,2.21890748 L111.418726,3.60802834 L109.064452,3.6140755 Z M110.549081,8.91369828 C110.674315,8.89469289 110.794796,8.85092291 110.911643,8.79045123 C111.032124,8.72393239 111.127167,8.62948138 111.204879,8.50767414 C111.221092,8.48118179 111.238423,8.44288306 111.258271,8.38903447 C111.281193,8.34094509 111.302717,8.27298644 111.323123,8.18746221 C111.340734,8.10481758 111.358904,7.99683244 111.372881,7.87156967 C111.387976,7.74659487 111.395244,7.59397587 111.394406,7.41169695 C111.393847,7.25015118 111.387976,7.10242751 111.372881,6.96795001 C111.360023,6.83606416 111.332907,6.70734587 111.286504,6.58352291 C111.263582,6.502894 111.230596,6.42543266 111.188945,6.3517148 C111.149251,6.28087655 111.095859,6.21234198 111.03464,6.14726294 C110.971744,6.08448757 110.893193,6.0297751 110.804859,5.98341348 C110.720159,5.93618798 110.614214,5.90278458 110.492615,5.87254874 C110.25892,5.87485242 110.045353,5.90652806 109.863373,5.97304691 C109.676362,6.03639819 109.530164,6.16338872 109.432046,6.35315461 C109.361881,6.4890719 109.318832,6.66098425 109.302899,6.8677398 C109.289481,7.07651107 109.281654,7.30169609 109.282213,7.5407032 C109.283052,7.70253693 109.285847,7.8640827 109.297308,8.02044519 C109.307371,8.17479195 109.345948,8.32165174 109.413596,8.45526536 C109.461118,8.55950701 109.518703,8.64071184 109.58691,8.70262332 C109.652042,8.763095 109.722207,8.81406398 109.795446,8.84746739 C109.872598,8.88346244 109.949471,8.90419558 110.026065,8.91744176 C110.106292,8.92780833 110.177854,8.93356754 110.248857,8.93356754 L110.549081,8.91369828 Z" id="Fill-42"></path>
                        <path d="M114.826657,11.2573574 L117.722082,11.2477097 C117.783395,11.2477097 117.855261,11.2462909 117.929692,11.2462909 C118.011539,11.2462909 118.091104,11.2411832 118.168102,11.2312517 C118.244815,11.221604 118.32381,11.2094024 118.396245,11.185283 C118.47524,11.1620149 118.543113,11.1308016 118.599293,11.0851166 C118.757853,10.9568583 118.852247,10.8098719 118.889605,10.6381987 L116.810649,10.6441576 C116.642393,10.6441576 116.467864,10.6381987 116.289342,10.6274159 C116.113386,10.6143631 115.939142,10.581731 115.769175,10.5329247 C115.599493,10.479862 115.438652,10.40268 115.282089,10.2999598 C115.128092,10.1946858 114.991776,10.0519558 114.870575,9.86949979 C114.690057,9.60617289 114.560585,9.2860945 114.483872,8.91096717 C114.402881,8.53129972 114.36096,8.07218019 114.359534,7.53275731 C114.359534,7.23225818 114.371226,6.96524244 114.393755,6.7348314 C114.417996,6.50044776 114.455354,6.29245356 114.508683,6.11141631 C114.560585,5.92867652 114.630169,5.76296218 114.712015,5.61824589 C114.793292,5.4755159 114.892249,5.33590724 115.013165,5.20793264 C115.134366,5.06974277 115.266119,4.95425349 115.399012,4.8574922 C115.532191,4.76214971 115.680484,4.6835489 115.843321,4.62395983 C116.005873,4.56210071 116.188388,4.51698328 116.386017,4.48860754 C116.588495,4.46250185 116.813501,4.44774647 117.070733,4.44661144 L119.746284,4.43781496 C119.845811,4.43781496 119.941917,4.44008502 120.039448,4.44207132 C120.13812,4.44661144 120.23394,4.45881301 120.334038,4.47498718 C120.434991,4.49513396 120.531382,4.5215234 120.624921,4.56210071 C120.721311,4.60012421 120.809717,4.65375437 120.892989,4.71986985 C120.975691,4.78910666 121.043849,4.86174857 121.089763,4.94176816 C121.139669,5.02320655 121.178168,5.10180736 121.206686,5.18409701 C121.234634,5.26610291 121.253456,5.34612251 121.2603,5.42841216 C121.268855,5.51126934 121.274559,5.58703257 121.274559,5.6568369 L121.284825,9.06306116 L122.1666,9.05852104 L122.169451,10.6274159 L121.264578,10.6316723 C121.235489,10.8819463 121.183302,11.1126411 121.108014,11.3271617 C121.036434,11.5351559 120.926926,11.7329349 120.779203,11.9156747 C120.532238,12.2167413 120.210555,12.4281406 119.816438,12.5549802 C119.42232,12.6806847 118.97573,12.7448139 118.476666,12.7462327 L114.830365,12.758718 L114.826657,11.2573574 Z M118.875632,6.59295268 C118.875632,6.50555539 118.862513,6.4314947 118.839699,6.37020309 C118.818596,6.30976276 118.766693,6.25329503 118.686273,6.2007999 C118.620681,6.15653374 118.556801,6.13099558 118.494632,6.12078031 C118.434745,6.10914625 118.373716,6.10318735 118.303277,6.10318735 L118.033498,6.10488989 C117.94937,6.10488989 117.866097,6.10772747 117.773984,6.11425389 C117.688431,6.12078031 117.602877,6.13468442 117.52046,6.15653374 C117.436903,6.18178816 117.357338,6.21385275 117.280054,6.26322654 C117.206193,6.3055064 117.134613,6.37162188 117.071588,6.4488039 C117.044496,6.48030098 117.014552,6.52286459 116.984608,6.57819729 C116.95552,6.63580005 116.928143,6.70787444 116.904188,6.79725803 C116.8751,6.88607411 116.853711,6.99503697 116.840023,7.12670042 C116.823197,7.25921514 116.813501,7.416133 116.816638,7.60454794 C116.816638,7.88036017 116.837741,8.1181489 116.883085,8.3167791 C116.923865,8.51455804 116.992023,8.65927433 117.084706,8.75149549 C117.159423,8.83832527 117.246973,8.89990063 117.33766,8.94643685 C117.43291,8.98729792 117.529301,9.01851124 117.627688,9.03525293 C117.725789,9.0514271 117.824461,9.06306116 117.922278,9.06589873 L118.193768,9.06589873 L118.883902,9.06589873 L118.875632,6.59295268 Z" id="Fill-44"></path>
                        <path d="M126.074186,7.89056086 C126.075579,8.04414472 126.070566,8.20522049 126.056363,8.38243264 C126.04216,8.56194999 126.012083,8.7429081 125.961397,8.93049364 C125.910712,9.11433324 125.83524,9.2961558 125.738604,9.4690457 C125.638904,9.64683416 125.503,9.80704547 125.327271,9.95112039 C125.150429,10.0960598 124.962725,10.2046923 124.750793,10.2804757 C124.543038,10.3597169 124.335283,10.4193639 124.122515,10.4571115 C123.911697,10.4942828 123.709233,10.5179111 123.512339,10.5236741 C123.31461,10.5340475 123.139439,10.536929 122.982369,10.536929 L122.174464,10.5398105 L122.169451,8.94749448 L122.236568,8.94749448 C122.351585,8.94749448 122.464931,8.94317224 122.576885,8.93193439 C122.68856,8.9238662 122.791881,8.89879716 122.892416,8.86710068 C122.991838,8.83511605 123.085411,8.78785947 123.174529,8.727348 C123.266709,8.67259953 123.347194,8.59508723 123.420994,8.49826888 C123.491452,8.40317943 123.54353,8.30780183 123.586418,8.20377974 C123.627078,8.10033394 123.657712,7.99919335 123.679156,7.89200161 C123.700043,7.78797951 123.71341,7.68453372 123.719816,7.58771537 C123.727614,7.48801552 123.729285,7.38975643 123.729285,7.29668403 L123.71341,2.22697567 L126.057755,2.21890748 L126.074186,7.89056086 Z" id="Fill-46"></path>
                        <polygon id="Fill-48" points="127.190112 2.22496219 129.397422 2.21890748 129.421517 10.5340441 127.211588 10.5398105"></polygon>
                        <path d="M0.0206924387,24.9627091 L2.9844416e-05,18.4958151 C-0.00280524121,17.9911865 0.196351924,17.5595581 0.596672155,17.1951363 C0.993267143,16.8304248 1.47210401,16.6485036 2.02802473,16.6485036 L4.07518846,16.6418061 C4.63282852,16.638944 5.11309817,16.8170994 5.51141251,17.1838386 C5.91459831,17.5418874 6.11518826,17.9746745 6.11719416,18.476696 L6.13639348,24.9433003 L4.10241138,24.9508321 L4.09066254,21.2530225 L2.04378537,21.2605543 L2.05553421,24.9566258 L0.0206924387,24.9627091 Z M2.03977357,20.3442854 L4.0869373,20.337333 L4.08263894,18.4839381 C4.08177927,18.2324928 3.97775905,18.016389 3.77630943,17.8373646 C3.57056145,17.6568918 3.3312863,17.5679589 3.05504528,17.5708558 C2.77450591,17.5708558 2.53580386,17.6597886 2.33292146,17.8402614 C2.13405085,18.0221826 2.03260965,18.240604 2.0349021,18.4891524 L2.03977357,20.3442854 Z" id="Fill-50"></path>
                        <polygon id="Fill-52" points="8.39308295 24.9627091 8.36779844 16.6490522 10.3655558 16.6418061 10.3885928 24.0302741 13.3862121 24.0201295 13.3884596 24.9456082"></polygon>
                        <path d="M15.6198646,16.6744563 L17.6220974,16.6678107 L17.6451957,24.0326103 L18.6485656,24.0302988 C18.928281,24.028854 19.1648983,23.936971 19.3606709,23.7540718 C19.5527816,23.5711726 19.6510905,23.3556231 19.6510905,23.1103128 L19.6291189,16.6602983 L21.6336052,16.6550973 L21.6552951,24.019319 L22.6589467,24.0178743 C22.9341551,24.0141181 23.1665471,23.9245466 23.3642915,23.7407806 C23.5586557,23.5584592 23.653866,23.3452213 23.6533026,23.0973105 L23.6335845,16.6484517 L25.6459581,16.6418061 L25.6611869,21.7817653 C25.663986,22.6407848 25.3304684,23.3801831 24.6597711,24.0022715 C23.9904822,24.6252268 23.1845751,24.9375713 22.2474017,24.9404607 L19.6553158,24.94884 L19.6553158,24.6546988 C19.2725028,24.8508892 18.7998317,24.9502847 18.2342037,24.953752 L15.6443713,24.9627091 L15.6198646,16.6744563 Z" id="Fill-54"></path>
                        <polygon id="Fill-56" points="27.9170376 24.9627091 27.8925918 16.6574382 32.8868403 16.6418061 32.8902121 17.5664152 29.8940564 17.5759681 29.903329 20.3442953 31.9092893 20.3385056 31.9115372 21.2547197 29.9064198 21.2636937 29.9142874 24.0314419 32.9110051 24.02131 32.913253 24.9456296"></polygon>
                        <polygon id="Fill-58" points="35.1692123 24.9627091 35.1446579 16.6580171 40.1622145 16.6418061 40.1653191 17.5664152 37.1535998 17.5765471 37.1615023 20.3442953 39.1741132 20.3385056 39.1763711 21.2564566 37.1637602 21.2636937 37.1753318 24.956051"></polygon>
                        <path d="M42.418228,24.9627091 L42.3967241,18.4987782 C42.3947336,17.9949373 42.5921442,17.5605918 42.9918363,17.1977684 C43.3906689,16.8346555 43.8694399,16.650493 44.4252841,16.6499139 L46.4713067,16.6418061 C47.0265779,16.6418061 47.507641,16.8204669 47.9079062,17.1841589 C48.3096039,17.5435075 48.5095932,17.9769844 48.5115989,18.4779296 L48.5330877,24.9435979 L46.4979528,24.9502579 L46.484773,21.2554248 L44.4416157,21.2620848 L44.4525033,24.95547 L42.418228,24.9627091 Z M44.4370314,20.3430096 L46.4819078,20.3372183 L46.4767505,18.4845896 C46.475891,18.2338274 46.3753233,18.0178129 46.1704632,17.8382834 C45.9684682,17.6584643 45.7283664,17.5715952 45.4521634,17.5715952 C45.1708031,17.5715952 44.9321339,17.6622286 44.7287063,17.8426268 C44.5304361,18.0244728 44.4304415,18.2404874 44.4312955,18.4903809 L44.4370314,20.3430096 Z" id="Fill-60"></path>
                        <path d="M53.7881974,24.6324729 L52.2615545,24.6374852 C51.7032361,24.6388775 51.2253728,24.4662327 50.8276784,24.1201079 C50.4225396,23.77092 50.2212587,23.3562941 50.2212587,22.8709396 L50.2066414,18.4292361 C50.2046523,17.9436031 50.4019248,17.5261927 50.8050593,17.1772832 C51.1990317,16.8275384 51.6783265,16.652666 52.2352133,16.6498814 L54.2777997,16.6418061 C54.8346865,16.6418061 55.3139813,16.8138939 55.7168295,17.1628034 C56.1153829,17.5097636 56.319527,17.9274525 56.319527,18.4083516 L56.3355608,22.8514475 C56.3369924,23.8973405 55.6598524,24.4926863 54.3049998,24.6302452 L56.3401419,24.624676 L56.3430051,25.5146318 L54.813499,25.517436 C54.213092,25.520201 53.8703704,25.226148 53.7881974,24.6324729 M52.240367,18.4219961 L52.2552555,22.865092 C52.2558282,23.1051239 52.3563255,23.3106268 52.553598,23.4827146 C52.7548789,23.6587009 52.9962442,23.7439094 53.2788392,23.7439094 C53.5628658,23.7425171 53.8022269,23.6559163 54.00179,23.4790947 C54.201353,23.3028299 54.2984145,23.0970486 54.2975612,22.8572951 L54.2820944,18.4155915 C54.2820944,18.1727751 54.1815971,17.9658798 53.9791709,17.7932351 C53.7758858,17.619755 53.5402468,17.5356603 53.2590833,17.5356603 C52.9810694,17.5376095 52.7402767,17.623375 52.5384232,17.797412 C52.3394328,17.9731198 52.240367,18.1794581 52.240367,18.4219961" id="Fill-62"></path>
                        <path d="M61.3885852,24.9627091 L61.3636662,16.6560069 L65.4400631,16.6418061 C65.9971592,16.6403667 66.4800713,16.8184916 66.8796339,17.1831407 C67.2794828,17.5422869 67.4788344,17.9773171 67.4794073,18.4778046 L67.4814122,18.9788713 C67.4845629,19.3918894 67.33018,19.7904257 67.0174042,20.1741907 C66.7060605,20.5588246 66.1873453,20.7502727 65.4523794,20.753169 L66.466323,20.7502727 C66.7473056,20.7482453 66.987616,20.8380318 67.1901183,21.019053 C67.3906156,21.2009431 67.4897186,21.4155619 67.4911507,21.6724672 L67.5000298,24.9435933 L65.4646956,24.9502549 L65.4552436,22.1796163 C65.4543843,21.9270555 65.3555678,21.7095404 65.1527791,21.5290984 C64.9514225,21.3495254 64.7085343,21.2574218 64.4332801,21.2574218 L63.4150402,21.261187 L63.4250651,24.9560475 L61.3885852,24.9627091 Z M63.4098846,20.3450748 L64.4295566,20.3413095 C64.7056701,20.3389925 64.9502768,20.2486267 65.1476235,20.0649987 C65.3524171,19.8787641 65.4495151,19.6626971 65.4472237,19.4110052 L65.4449323,18.4853351 C65.4440731,18.234512 65.3458294,18.0167073 65.1396036,17.8385824 C64.9411112,17.6575612 64.6953588,17.5698021 64.4206775,17.5712326 L63.4015782,17.5750155 L63.4098846,20.3450748 Z" id="Fill-64"></path>
                        <polygon id="Fill-66" points="69.7553213 24.9627091 69.7314348 16.65802 74.7276474 16.6418061 74.7290525 17.5657075 71.7303133 17.5761307 71.7409919 20.3472557 73.7443667 20.3397279 73.7471769 21.2540746 71.7432401 21.2616025 71.7513896 24.0298322 74.7512529 24.0223043 74.752096 24.9456267"></polygon>
                        <polygon id="Fill-68" points="77.0087361 24.9627091 76.9835009 16.6632182 77.4510767 16.6609033 83.1896127 21.2506089 83.1748197 16.6446996 84.2094617 16.6418061 84.235567 24.9410077 83.7604497 24.9427438 78.028295 20.3530382 78.042798 24.9612624"></polygon>
                        <polygon id="Fill-70" points="87.4200876 24.4079823 87.3973943 17.0254943 85.3541421 17.0321559 85.3512695 16.1061951 91.4844733 16.0870792 91.4876332 17.0127504 89.4452427 17.0188327 89.4693722 24.4018999"></polygon>
                        <path d="M95.4146542,24.4079823 L95.3925918,17.9420645 C95.3911674,17.4377791 95.5899459,17.004169 95.9886486,16.6397859 C96.3873514,16.2765614 96.8651073,16.0946595 97.421057,16.0932112 L99.4678456,16.0870792 C100.024655,16.0836526 100.504129,16.2641063 100.904837,16.6284894 C101.305544,16.9879485 101.506901,17.4192414 101.508333,17.9226578 L101.528955,24.3900238 L99.4921917,24.3966858 L99.4804483,20.6995584 L97.4373832,20.7062205 L97.4491266,24.4027685 L95.4146542,24.4079823 Z M97.4336597,19.7886006 L99.477584,19.7825179 L99.4732877,17.9301888 C99.4715691,17.6784805 99.3710342,17.4623996 99.1665272,17.2813667 C98.964598,17.1029406 98.7260065,17.0154655 98.4490341,17.0154655 C98.1683382,17.0154655 97.9291738,17.1067061 97.7272446,17.2848425 C97.5276069,17.4684823 97.4267855,17.6851426 97.4267855,17.9354025 L97.4336597,19.7886006 Z" id="Fill-72"></path>
                        <path d="M112.68598,22.5490733 C112.603095,23.7801331 111.923669,24.3984167 110.656305,24.4021849 L108.609708,24.4079823 C108.051024,24.4079823 107.568055,24.2311642 107.168831,23.8694117 C106.765018,23.508239 106.565119,23.0751796 106.563685,22.5699437 L106.549617,17.9454258 C106.547624,17.4474364 106.745229,17.014377 107.135275,16.647407 C107.527616,16.2789877 108.011159,16.0946331 108.583036,16.0937635 L110.631353,16.0870792 C111.911337,16.0833283 112.593344,16.6934957 112.670493,17.9231061 L111.648055,17.9291933 C111.568612,17.3161273 111.229042,17.0114784 110.635082,17.0129277 L109.608915,17.0158264 C109.327852,17.0158264 109.087515,17.1074239 108.886756,17.28859 C108.686857,17.4706257 108.587624,17.6877351 108.589058,17.9387589 L108.602538,22.5632767 C108.603112,22.8119815 108.702918,23.026772 108.902243,23.2073584 C109.102142,23.3879448 109.3442,23.4786727 109.629278,23.4786727 L110.652576,23.4754842 C111.251699,23.4725855 111.588401,23.1656177 111.661248,22.5528416 L112.68598,22.5490733 Z" id="Fill-74"></path>
                        <path d="M114.937742,24.4079823 L114.917385,17.9435057 C114.916528,17.4387083 115.113476,17.0045767 115.512533,16.6414006 C115.91073,16.2776453 116.391204,16.0948988 116.949081,16.0928715 L118.992815,16.0870792 C119.549545,16.0870792 120.033745,16.2649023 120.433662,16.6280784 C120.833293,16.9871999 121.032535,17.420173 121.033395,17.9226535 L121.053749,24.3879989 L119.018902,24.3955289 L119.006575,20.6997632 L116.963702,20.7067139 L116.974595,24.4013211 L114.937742,24.4079823 Z M116.960262,19.7874787 L119.005142,19.7808176 L118.999122,17.9307627 C118.998548,17.6776399 118.897351,17.4618774 118.694382,17.282027 C118.491987,17.1024663 118.248883,17.0150028 117.973385,17.0150028 C117.692726,17.0164509 117.453062,17.1062313 117.253247,17.2872401 C117.051139,17.4691178 116.952521,17.6845907 116.954815,17.9368445 L116.960262,19.7874787 Z" id="Fill-76"></path>
                        <path d="M122.753068,24.4079823 L122.727303,16.0989522 L126.806761,16.0870792 C127.362426,16.0870792 127.841368,16.2657525 128.243589,16.6280219 C128.641801,16.9879747 128.841623,17.4223505 128.843627,17.9241993 L128.845917,18.4251794 C128.845917,18.8372573 128.693904,19.2357247 128.380716,19.6179754 C128.069532,20.0034115 127.549365,20.1948265 126.817639,20.1962744 L127.828772,20.1925098 C128.111328,20.1916411 128.349798,20.2831496 128.552482,20.4641395 C128.754308,20.6459982 128.85336,20.8605798 128.854219,21.1165719 L128.863666,24.3871322 L126.830808,24.3946614 L126.821361,21.6250812 C126.821361,21.3719849 126.720018,21.1545074 126.516761,20.9720696 C126.314935,20.7931068 126.075035,20.7033358 125.79849,20.7033358 L124.776765,20.7068108 L124.78793,24.4013218 L122.753068,24.4079823 Z M124.77333,19.7894091 L125.797918,19.7850653 C126.073031,19.7850653 126.312073,19.6938464 126.513326,19.5082231 C126.714865,19.3240478 126.815349,19.1065703 126.814213,18.8557906 L126.810482,17.9314389 C126.809623,17.6783426 126.708854,17.4631818 126.505596,17.2821919 C126.303198,17.103229 126.061866,17.0154851 125.788184,17.0163475 L124.764455,17.0201185 L124.77333,19.7894091 Z" id="Fill-78"></path>
                    </g>
                    <g id="Group-2" transform="translate(128.943919, 26.262583)">
                        <mask id="mask-2" fill="white">
                            <use xlink:href="#path-1"></use>
                        </mask>
                        <g id="Clip-81"></g>
                        <path d="M9.16412022e-06,2.6828903 C-0.00379850435,1.20644094 1.17943334,0.00297559745 2.64834373,2.78740468e-05 C4.11666692,-0.00665913239 5.30870693,1.19067502 5.31692812,2.66654046 C5.31751511,4.14590943 4.13398966,5.34937477 2.66713451,5.35697344 C1.19881133,5.36046931 0.00618409678,4.16255123 9.16412022e-06,2.6828903 M0.441014458,2.68143049 C0.4530523,3.91613572 1.44338505,4.91084859 2.66390484,4.90939038 C3.8876543,4.90267366 4.87446378,3.90212157 4.87065794,2.66654046 C4.86624282,1.43475484 3.87326761,0.444421401 2.65039897,0.44675297 C1.42841115,0.452596323 0.445712152,1.4502288 0.441014458,2.68143049" id="Fill-80" fill="#2F1800" mask="url(#mask-2)"></path>
                        <path d="M1.60535246,4.24739525 L1.59327087,0.922478646 L3.13558044,0.919130598 C3.34605435,0.917608758 3.51805795,0.934044632 3.66144728,0.970568799 C3.80420073,1.00800607 3.91675022,1.06370542 4.0038648,1.14223238 C4.09670223,1.21954187 4.1583819,1.31937459 4.19526252,1.4402087 C4.23500457,1.56286903 4.25884981,1.70713949 4.25884981,1.87423755 C4.2613933,1.95519945 4.25153727,2.02703031 4.24072743,2.08699081 C4.23214315,2.14573385 4.20829791,2.2072162 4.182863,2.26352428 C4.15043349,2.31648433 4.10973763,2.37096621 4.05918573,2.42666556 C4.01181321,2.47658192 3.94568243,2.53562932 3.86588039,2.5958942 C3.94027751,2.64581056 4.00195718,2.69085703 4.04456066,2.73468603 C4.08525652,2.77821066 4.11673223,2.82812702 4.13898778,2.88595695 C4.15933571,2.94622183 4.17555046,3.0131828 4.18445268,3.09657964 C4.19526252,3.18028086 4.20162125,3.283766 4.21052347,3.41494863 C4.21243109,3.52360802 4.21910775,3.60913544 4.22292299,3.68035757 C4.23023553,3.74884038 4.23659426,3.80119169 4.24676822,3.8486731 C4.26266504,3.89006716 4.27506456,3.92902627 4.29477662,3.95946307 C4.31480661,3.98533436 4.34342089,4.01424932 4.38252707,4.0392075 L4.38252707,4.2373511 L3.77304296,4.24100352 C3.68847187,4.06173074 3.64523252,3.8620653 3.64523252,3.64200719 C3.64427871,3.37507641 3.63219712,3.19489052 3.61248507,3.10601505 L3.61725411,3.10601505 C3.55303096,2.94774367 3.40900576,2.8664774 3.16991757,2.86799924 L2.15760802,2.86982544 L2.16110532,4.24435157 L1.60535246,4.24739525 Z M2.1522031,1.41464179 L2.15760802,2.38040162 L3.15370281,2.3758361 C3.31839388,2.37431426 3.45606035,2.33596388 3.55048747,2.25621945 C3.65000156,2.17525755 3.70055345,2.05594527 3.69800996,1.89919573 L3.69800996,1.85293178 C3.69642028,1.55678167 3.51551446,1.40672822 3.15020551,1.41159811 L2.1522031,1.41464179 Z" id="Fill-83" fill="#2F1800" mask="url(#mask-2)"></path>
                    </g>
                </g>
                <g id="Group" transform="translate(137.000000, 0.000000)">
                    <path d="M35.9903836,17.9039586 C36.1844048,17.5557329 36.6234308,16.8095351 36.6322114,16.7911762 C38.4211718,13.1952132 37.1882166,10.2797116 33.8915557,10.1636364 L27.286621,23.4545455 C30.3439419,23.3316597 33.9785112,20.9710687 35.9903836,17.9039586" id="Fill-1" fill="#FF8900"></path>
                    <g id="Group-5" transform="translate(16.337903, 0.000000)">
                        <mask id="mask-4" fill="white">
                            <use xlink:href="#path-3"></use>
                        </mask>
                        <g id="Clip-4"></g>
                        <path d="M22.3325986,0.338091156 L20.8644928,3.15064218 C28.1237861,3.25477823 30.933012,9.27799592 27.0527668,16.7210912 C27.044262,16.7398122 27.0152284,16.7863224 27.0152284,16.7863224 C21.9102909,26.5405946 12.1309351,35.044649 1.94510817,39.4563905 L0.228016827,42.7548122 L22.4153005,42.6860707 L44.5190024,0.267594558 L22.3325986,0.338091156 Z" id="Fill-3" fill="#FF8900" mask="url(#mask-4)"></path>
                    </g>
                    <path d="M23.2704022,17.6081452 C21.7642687,20.4146488 22.8603283,22.682709 25.7062589,22.6727273 L25.752396,22.6727273 L31.1968774,12.5117845 C31.1792724,12.5117845 31.1628816,12.5079553 31.1510438,12.5094281 C28.2993461,12.5185592 24.7735003,14.8025253 23.2704022,17.6081452" id="Fill-6" fill="#2F1800"></path>
                    <path d="M17.9143061,38.2541683 L19.2460196,35.7118694 C18.0539093,36.2170397 16.851425,36.6499589 15.6524975,37.0053403 L13.5116191,32.4520524 C16.5452465,32.0590769 19.7537484,30.83492 22.7500297,29.0333417 L22.9542475,28.6406599 C22.9367601,28.6406599 22.922533,28.6435969 22.9080095,28.6435969 C17.1407089,28.6615129 14.936105,23.9742961 17.9771423,18.1736486 C21.02144,12.3730012 28.1586895,7.65435811 33.9242118,7.63556107 C33.9402172,7.63556107 33.9582975,7.63849811 33.9743029,7.63849811 L35.1071338,5.47272727 L17.8944475,5.52764986 L0.69687738,38.3090909 L17.9143061,38.2541683 Z" id="Fill-8" fill="#2F1800"></path>
                </g>
            </g>
        </g>
    </g>
</svg>